<?xml version="1.0" encoding="UTF-8"?>
        <svg xmlns="http://www.w3.org/2000/svg" xmlns:xlink="http://www.w3.org/1999/xlink"
             width="512" height="512" viewBox="0 -1900 1900 1900">
<defs>

        <rect id="obstacle" width="70" height="70" fill="#84A1AE" rx="15"/>
        <style>
        .line {stroke: #84A1AE; stroke-width: 10;}
        .agent {r: 35;}
        .target {fill: none; stroke-width: 10; r: 35;}
        </style>
        
</defs>

<line class="line" x1="-50.0" x2="-50.0" y1="0" y2="-1900" />
<line class="line" x1="50.0" x2="50.0" y1="0" y2="-1900" />
<line class="line" x1="150.0" x2="150.0" y1="0" y2="-1900" />
<line class="line" x1="250.0" x2="250.0" y1="0" y2="-1900" />
<line class="line" x1="350.0" x2="350.0" y1="0" y2="-1900" />
<line class="line" x1="450.0" x2="450.0" y1="0" y2="-1900" />
<line class="line" x1="550.0" x2="550.0" y1="0" y2="-1900" />
<line class="line" x1="650.0" x2="650.0" y1="0" y2="-1900" />
<line class="line" x1="750.0" x2="750.0" y1="0" y2="-1900" />
<line class="line" x1="850.0" x2="850.0" y1="0" y2="-1900" />
<line class="line" x1="950.0" x2="950.0" y1="0" y2="-1900" />
<line class="line" x1="1050.0" x2="1050.0" y1="0" y2="-1900" />
<line class="line" x1="1150.0" x2="1150.0" y1="0" y2="-1900" />
<line class="line" x1="1250.0" x2="1250.0" y1="0" y2="-1900" />
<line class="line" x1="1350.0" x2="1350.0" y1="0" y2="-1900" />
<line class="line" x1="1450.0" x2="1450.0" y1="0" y2="-1900" />
<line class="line" x1="1550.0" x2="1550.0" y1="0" y2="-1900" />
<line class="line" x1="1650.0" x2="1650.0" y1="0" y2="-1900" />
<line class="line" x1="1750.0" x2="1750.0" y1="0" y2="-1900" />
<line class="line" x1="1850.0" x2="1850.0" y1="0" y2="-1900" />
<line class="line" x1="0" x2="1900" y1="50.0" y2="50.0" />
<line class="line" x1="0" x2="1900" y1="-50.0" y2="-50.0" />
<line class="line" x1="0" x2="1900" y1="-150.0" y2="-150.0" />
<line class="line" x1="0" x2="1900" y1="-250.0" y2="-250.0" />
<line class="line" x1="0" x2="1900" y1="-350.0" y2="-350.0" />
<line class="line" x1="0" x2="1900" y1="-450.0" y2="-450.0" />
<line class="line" x1="0" x2="1900" y1="-550.0" y2="-550.0" />
<line class="line" x1="0" x2="1900" y1="-650.0" y2="-650.0" />
<line class="line" x1="0" x2="1900" y1="-750.0" y2="-750.0" />
<line class="line" x1="0" x2="1900" y1="-850.0" y2="-850.0" />
<line class="line" x1="0" x2="1900" y1="-950.0" y2="-950.0" />
<line class="line" x1="0" x2="1900" y1="-1050.0" y2="-1050.0" />
<line class="line" x1="0" x2="1900" y1="-1150.0" y2="-1150.0" />
<line class="line" x1="0" x2="1900" y1="-1250.0" y2="-1250.0" />
<line class="line" x1="0" x2="1900" y1="-1350.0" y2="-1350.0" />
<line class="line" x1="0" x2="1900" y1="-1450.0" y2="-1450.0" />
<line class="line" x1="0" x2="1900" y1="-1550.0" y2="-1550.0" />
<line class="line" x1="0" x2="1900" y1="-1650.0" y2="-1650.0" />
<line class="line" x1="0" x2="1900" y1="-1750.0" y2="-1750.0" />
<line class="line" x1="0" x2="1900" y1="-1850.0" y2="-1850.0" />
<use href="#obstacle" x="65" y="-135" />
<use href="#obstacle" x="65" y="-235" />
<use href="#obstacle" x="65" y="-335" />
<use href="#obstacle" x="65" y="-435" />
<use href="#obstacle" x="65" y="-535" />
<use href="#obstacle" x="65" y="-635" />
<use href="#obstacle" x="65" y="-735" />
<use href="#obstacle" x="65" y="-835" />
<use href="#obstacle" x="65" y="-935" />
<use href="#obstacle" x="65" y="-1035" />
<use href="#obstacle" x="65" y="-1135" />
<use href="#obstacle" x="65" y="-1235" />
<use href="#obstacle" x="65" y="-1335" />
<use href="#obstacle" x="65" y="-1435" />
<use href="#obstacle" x="65" y="-1535" />
<use href="#obstacle" x="65" y="-1635" />
<use href="#obstacle" x="65" y="-1735" />
<use href="#obstacle" x="65" y="-1835" />
<use href="#obstacle" x="165" y="-135" />
<use href="#obstacle" x="165" y="-235" />
<use href="#obstacle" x="165" y="-1835" />
<use href="#obstacle" x="265" y="-135" />
<use href="#obstacle" x="265" y="-335" />
<use href="#obstacle" x="265" y="-535" />
<use href="#obstacle" x="265" y="-635" />
<use href="#obstacle" x="265" y="-735" />
<use href="#obstacle" x="265" y="-1835" />
<use href="#obstacle" x="365" y="-135" />
<use href="#obstacle" x="365" y="-635" />
<use href="#obstacle" x="365" y="-1235" />
<use href="#obstacle" x="365" y="-1635" />
<use href="#obstacle" x="365" y="-1735" />
<use href="#obstacle" x="365" y="-1835" />
<use href="#obstacle" x="465" y="-135" />
<use href="#obstacle" x="465" y="-935" />
<use href="#obstacle" x="465" y="-1035" />
<use href="#obstacle" x="465" y="-1135" />
<use href="#obstacle" x="465" y="-1835" />
<use href="#obstacle" x="565" y="-135" />
<use href="#obstacle" x="565" y="-635" />
<use href="#obstacle" x="565" y="-1135" />
<use href="#obstacle" x="565" y="-1835" />
<use href="#obstacle" x="665" y="-135" />
<use href="#obstacle" x="665" y="-235" />
<use href="#obstacle" x="665" y="-435" />
<use href="#obstacle" x="665" y="-535" />
<use href="#obstacle" x="665" y="-635" />
<use href="#obstacle" x="665" y="-1735" />
<use href="#obstacle" x="665" y="-1835" />
<use href="#obstacle" x="765" y="-135" />
<use href="#obstacle" x="765" y="-735" />
<use href="#obstacle" x="765" y="-835" />
<use href="#obstacle" x="765" y="-1635" />
<use href="#obstacle" x="765" y="-1835" />
<use href="#obstacle" x="865" y="-135" />
<use href="#obstacle" x="865" y="-735" />
<use href="#obstacle" x="865" y="-835" />
<use href="#obstacle" x="865" y="-1135" />
<use href="#obstacle" x="865" y="-1635" />
<use href="#obstacle" x="865" y="-1835" />
<use href="#obstacle" x="965" y="-135" />
<use href="#obstacle" x="965" y="-335" />
<use href="#obstacle" x="965" y="-935" />
<use href="#obstacle" x="965" y="-1335" />
<use href="#obstacle" x="965" y="-1835" />
<use href="#obstacle" x="1065" y="-135" />
<use href="#obstacle" x="1065" y="-535" />
<use href="#obstacle" x="1065" y="-735" />
<use href="#obstacle" x="1065" y="-1535" />
<use href="#obstacle" x="1065" y="-1835" />
<use href="#obstacle" x="1165" y="-135" />
<use href="#obstacle" x="1165" y="-335" />
<use href="#obstacle" x="1165" y="-435" />
<use href="#obstacle" x="1165" y="-1835" />
<use href="#obstacle" x="1265" y="-135" />
<use href="#obstacle" x="1265" y="-235" />
<use href="#obstacle" x="1265" y="-335" />
<use href="#obstacle" x="1265" y="-1735" />
<use href="#obstacle" x="1265" y="-1835" />
<use href="#obstacle" x="1365" y="-135" />
<use href="#obstacle" x="1365" y="-1535" />
<use href="#obstacle" x="1365" y="-1835" />
<use href="#obstacle" x="1465" y="-135" />
<use href="#obstacle" x="1465" y="-735" />
<use href="#obstacle" x="1465" y="-1135" />
<use href="#obstacle" x="1465" y="-1535" />
<use href="#obstacle" x="1465" y="-1735" />
<use href="#obstacle" x="1465" y="-1835" />
<use href="#obstacle" x="1565" y="-135" />
<use href="#obstacle" x="1565" y="-635" />
<use href="#obstacle" x="1565" y="-935" />
<use href="#obstacle" x="1565" y="-1835" />
<use href="#obstacle" x="1665" y="-135" />
<use href="#obstacle" x="1665" y="-435" />
<use href="#obstacle" x="1665" y="-1635" />
<use href="#obstacle" x="1665" y="-1835" />
<use href="#obstacle" x="1765" y="-135" />
<use href="#obstacle" x="1765" y="-235" />
<use href="#obstacle" x="1765" y="-335" />
<use href="#obstacle" x="1765" y="-435" />
<use href="#obstacle" x="1765" y="-535" />
<use href="#obstacle" x="1765" y="-635" />
<use href="#obstacle" x="1765" y="-735" />
<use href="#obstacle" x="1765" y="-835" />
<use href="#obstacle" x="1765" y="-935" />
<use href="#obstacle" x="1765" y="-1035" />
<use href="#obstacle" x="1765" y="-1135" />
<use href="#obstacle" x="1765" y="-1235" />
<use href="#obstacle" x="1765" y="-1335" />
<use href="#obstacle" x="1765" y="-1435" />
<use href="#obstacle" x="1765" y="-1535" />
<use href="#obstacle" x="1765" y="-1635" />
<use href="#obstacle" x="1765" y="-1735" />
<use href="#obstacle" x="1765" y="-1835" />
<circle class="agent" cx="1200" cy="-700" fill="#c1433c" r="35"> <animate attributeName="cy" dur="6.0s" keyTimes="0.0;0.04;0.08;0.12;0.16;0.2;0.24;0.28;0.32;0.36;0.4;0.44;1.0" repeatCount="indefinite" values="-700;-700;-800;-900;-1000;-1100;-1200;-1300;-1400;-1500;-1600;-1700;-1700"/>
<animate attributeName="cx" dur="6.0s" keyTimes="0.0;0.04;0.44;0.48;1.0" repeatCount="indefinite" values="1200;1200;1200;1100;1100"/>
<animate attributeName="visibility" dur="6.0s" keyTimes="0.0;0.04;0.44;0.48;1.0" repeatCount="indefinite" values="visible;visible;visible;hidden;hidden"/> </circle>
<circle class="agent" cx="1600" cy="-800" fill="#2e6f9e" r="35"> <animate attributeName="cy" dur="6.0s" keyTimes="0.0;0.04;0.2;0.24;0.28;1.0" repeatCount="indefinite" values="-800;-800;-800;-700;-600;-600"/>
<animate attributeName="cx" dur="6.0s" keyTimes="0.0;0.04;0.08;0.12;0.16;0.2;0.28;0.32;1.0" repeatCount="indefinite" values="1600;1600;1500;1400;1300;1200;1200;1100;1100"/>
<animate attributeName="visibility" dur="6.0s" keyTimes="0.0;0.04;0.28;0.32;1.0" repeatCount="indefinite" values="visible;visible;visible;hidden;hidden"/> </circle>
<circle class="agent" cx="500" cy="-600" fill="#6e81af" r="35"> <animate attributeName="cy" dur="6.0s" keyTimes="0.0;0.04;0.08;0.16;0.2;0.24;0.32;0.36;0.56;0.6;0.64;0.68;0.72;0.76;0.8;0.84;0.88;0.92;0.96;1.0" repeatCount="indefinite" values="-600;-600;-700;-700;-800;-900;-900;-1000;-1000;-900;-800;-700;-600;-600;-500;-500;-400;-300;-200;-200"/>
<animate attributeName="cx" dur="6.0s" keyTimes="0.0;0.04;0.08;0.12;0.16;0.24;0.28;0.32;0.36;0.4;0.44;0.48;0.52;0.56;0.72;0.76;0.8;0.84;1.0" repeatCount="indefinite" values="500;500;500;600;700;700;800;900;900;1000;1100;1200;1300;1400;1400;1500;1500;1600;1600"/>
<animate attributeName="visibility" dur="6.0s" keyTimes="0.0;0.04;0.92;0.96;1.0" repeatCount="indefinite" values="visible;visible;visible;hidden;hidden"/> </circle>
<circle class="agent" cx="1700" cy="-1200" fill="#00b9c8" r="35"> <animate attributeName="cy" dur="6.0s" keyTimes="0.0;0.04;0.08;0.12;0.44;0.48;1.0" repeatCount="indefinite" values="-1200;-1200;-1300;-1400;-1400;-1500;-1500"/>
<animate attributeName="cx" dur="6.0s" keyTimes="0.0;0.04;0.12;0.16;0.2;0.24;0.28;0.32;0.36;0.4;0.44;0.48;0.52;0.56;0.6;0.64;0.68;0.72;1.0" repeatCount="indefinite" values="1700;1700;1700;1600;1500;1400;1300;1300;1200;1100;1000;1000;900;800;700;600;500;400;400"/>
<animate attributeName="visibility" dur="6.0s" keyTimes="0.0;0.04;0.68;0.72;1.0" repeatCount="indefinite" values="visible;visible;visible;hidden;hidden"/> </circle>
<circle class="agent" cx="400" cy="-200" fill="#72D5C8" r="35"> <animate attributeName="cy" dur="6.0s" keyTimes="0.0;0.04;0.08;0.12;0.16;0.2;0.24;0.28;0.32;0.36;0.4;0.44;0.48;0.52;0.56;1.0" repeatCount="indefinite" values="-200;-200;-300;-400;-500;-500;-600;-700;-800;-800;-900;-1000;-1000;-1100;-1200;-1200"/>
<animate attributeName="cx" dur="6.0s" keyTimes="0.0;0.04;0.16;0.2;0.32;0.36;0.44;0.48;0.56;0.6;0.64;1.0" repeatCount="indefinite" values="400;400;400;500;500;600;600;700;700;600;500;500"/>
<animate attributeName="visibility" dur="6.0s" keyTimes="0.0;0.04;0.6;0.64;1.0" repeatCount="indefinite" values="visible;visible;visible;hidden;hidden"/> </circle>
<circle class="agent" cx="1300" cy="-1600" fill="#0ea08c" r="35"> <animate attributeName="cy" dur="6.0s" keyTimes="0.0;0.04;0.08;0.12;0.16;0.2;0.24;0.28;0.32;1.0" repeatCount="indefinite" values="-1600;-1600;-1500;-1400;-1300;-1200;-1100;-1100;-1000;-1000"/>
<animate attributeName="cx" dur="6.0s" keyTimes="0.0;0.04;0.24;0.28;1.0" repeatCount="indefinite" values="1300;1300;1300;1200;1200"/>
<animate attributeName="visibility" dur="6.0s" keyTimes="0.0;0.04;0.28;0.32;1.0" repeatCount="indefinite" values="visible;visible;visible;hidden;hidden"/> </circle>
<circle class="agent" cx="200" cy="-1400" fill="#8F7B66" r="35"> <animate attributeName="cy" dur="6.0s" keyTimes="0.0;0.04;0.08;0.12;0.16;0.2;0.24;0.28;0.32;0.36;0.4;0.44;0.48;0.52;0.56;0.6;1.0" repeatCount="indefinite" values="-1400;-1400;-1400;-1300;-1200;-1100;-1100;-1000;-900;-800;-800;-700;-600;-500;-400;-300;-300"/>
<animate attributeName="cx" dur="6.0s" keyTimes="0.0;0.04;0.08;0.2;0.24;0.36;0.4;1.0" repeatCount="indefinite" values="200;200;300;300;400;400;500;500"/>
<animate attributeName="visibility" dur="6.0s" keyTimes="0.0;0.04;0.56;0.6;1.0" repeatCount="indefinite" values="visible;visible;visible;hidden;hidden"/> </circle>
<circle class="agent" cx="1500" cy="-1400" fill="#c1433c" r="35"> <animate attributeName="cy" dur="6.0s" keyTimes="0.0;0.04;0.08;0.12;0.16;1.0" repeatCount="indefinite" values="-1400;-1400;-1400;-1300;-1200;-1200"/>
<animate attributeName="cx" dur="6.0s" keyTimes="0.0;0.04;0.08;1.0" repeatCount="indefinite" values="1500;1500;1600;1600"/>
<animate attributeName="visibility" dur="6.0s" keyTimes="0.0;0.04;0.12;0.16;1.0" repeatCount="indefinite" values="visible;visible;visible;hidden;hidden"/> </circle>
<circle class="agent" cx="1500" cy="-1200" fill="#2e6f9e" r="35"> <animate attributeName="cy" dur="6.0s" keyTimes="0.0;0.04;1.0" repeatCount="indefinite" values="-1200;-1200;-1200"/>
<animate attributeName="cx" dur="6.0s" keyTimes="0.0;0.04;0.08;0.12;0.16;0.2;0.24;1.0" repeatCount="indefinite" values="1500;1500;1400;1300;1200;1100;1000;1000"/>
<animate attributeName="visibility" dur="6.0s" keyTimes="0.0;0.04;0.2;0.24;1.0" repeatCount="indefinite" values="visible;visible;visible;hidden;hidden"/> </circle>
<circle class="agent" cx="200" cy="-1500" fill="#6e81af" r="35"> <animate attributeName="cy" dur="6.0s" keyTimes="0.0;0.04;0.28;0.32;0.36;0.4;0.44;0.48;0.6;0.64;1.0" repeatCount="indefinite" values="-1500;-1500;-1500;-1400;-1300;-1200;-1100;-1000;-1000;-900;-900"/>
<animate attributeName="cx" dur="6.0s" keyTimes="0.0;0.04;0.08;0.12;0.16;0.2;0.24;0.28;0.48;0.52;0.56;0.6;0.64;0.68;0.72;1.0" repeatCount="indefinite" values="200;200;300;400;500;600;700;800;800;900;1000;1100;1100;1200;1300;1300"/>
<animate attributeName="visibility" dur="6.0s" keyTimes="0.0;0.04;0.68;0.72;1.0" repeatCount="indefinite" values="visible;visible;visible;hidden;hidden"/> </circle>
<circle class="target" cx="1100" cy="-1700" r="35" stroke="#c1433c"> <animate attributeName="visibility" dur="6.0s" keyTimes="0.0;0.04;0.44;0.48;1.0" repeatCount="indefinite" values="visible;visible;visible;hidden;hidden"/> </circle>
<circle class="target" cx="1100" cy="-600" r="35" stroke="#2e6f9e"> <animate attributeName="visibility" dur="6.0s" keyTimes="0.0;0.04;0.28;0.32;1.0" repeatCount="indefinite" values="visible;visible;visible;hidden;hidden"/> </circle>
<circle class="target" cx="1600" cy="-200" r="35" stroke="#6e81af"> <animate attributeName="visibility" dur="6.0s" keyTimes="0.0;0.04;0.92;0.96;1.0" repeatCount="indefinite" values="visible;visible;visible;hidden;hidden"/> </circle>
<circle class="target" cx="400" cy="-1500" r="35" stroke="#00b9c8"> <animate attributeName="visibility" dur="6.0s" keyTimes="0.0;0.04;0.68;0.72;1.0" repeatCount="indefinite" values="visible;visible;visible;hidden;hidden"/> </circle>
<circle class="target" cx="500" cy="-1200" r="35" stroke="#72D5C8"> <animate attributeName="visibility" dur="6.0s" keyTimes="0.0;0.04;0.6;0.64;1.0" repeatCount="indefinite" values="visible;visible;visible;hidden;hidden"/> </circle>
<circle class="target" cx="1200" cy="-1000" r="35" stroke="#0ea08c"> <animate attributeName="visibility" dur="6.0s" keyTimes="0.0;0.04;0.28;0.32;1.0" repeatCount="indefinite" values="visible;visible;visible;hidden;hidden"/> </circle>
<circle class="target" cx="500" cy="-300" r="35" stroke="#8F7B66"> <animate attributeName="visibility" dur="6.0s" keyTimes="0.0;0.04;0.56;0.6;1.0" repeatCount="indefinite" values="visible;visible;visible;hidden;hidden"/> </circle>
<circle class="target" cx="1600" cy="-1200" r="35" stroke="#c1433c"> <animate attributeName="visibility" dur="6.0s" keyTimes="0.0;0.04;0.12;0.16;1.0" repeatCount="indefinite" values="visible;visible;visible;hidden;hidden"/> </circle>
<circle class="target" cx="1000" cy="-1200" r="35" stroke="#2e6f9e"> <animate attributeName="visibility" dur="6.0s" keyTimes="0.0;0.04;0.2;0.24;1.0" repeatCount="indefinite" values="visible;visible;visible;hidden;hidden"/> </circle>
<circle class="target" cx="1300" cy="-900" r="35" stroke="#6e81af"> <animate attributeName="visibility" dur="6.0s" keyTimes="0.0;0.04;0.68;0.72;1.0" repeatCount="indefinite" values="visible;visible;visible;hidden;hidden"/> </circle>
</svg>