<?xml version="1.0" encoding="UTF-8"?>
        <svg xmlns="http://www.w3.org/2000/svg" xmlns:xlink="http://www.w3.org/1999/xlink"
             width="512" height="512" viewBox="0 -1100 1100 1100">
<defs>

        <rect id="obstacle" width="70" height="70" fill="#84A1AE" rx="15"/>
        <style>
        .line {stroke: #84A1AE; stroke-width: 10;}
        .agent {r: 35;}
        .target {fill: none; stroke-width: 10; r: 35;}
        </style>
        
</defs>

<line class="line" x1="-50.0" x2="-50.0" y1="0" y2="-1100" />
<line class="line" x1="50.0" x2="50.0" y1="0" y2="-1100" />
<line class="line" x1="150.0" x2="150.0" y1="0" y2="-1100" />
<line class="line" x1="250.0" x2="250.0" y1="0" y2="-1100" />
<line class="line" x1="350.0" x2="350.0" y1="0" y2="-1100" />
<line class="line" x1="450.0" x2="450.0" y1="0" y2="-1100" />
<line class="line" x1="550.0" x2="550.0" y1="0" y2="-1100" />
<line class="line" x1="650.0" x2="650.0" y1="0" y2="-1100" />
<line class="line" x1="750.0" x2="750.0" y1="0" y2="-1100" />
<line class="line" x1="850.0" x2="850.0" y1="0" y2="-1100" />
<line class="line" x1="950.0" x2="950.0" y1="0" y2="-1100" />
<line class="line" x1="1050.0" x2="1050.0" y1="0" y2="-1100" />
<line class="line" x1="0" x2="1100" y1="50.0" y2="50.0" />
<line class="line" x1="0" x2="1100" y1="-50.0" y2="-50.0" />
<line class="line" x1="0" x2="1100" y1="-150.0" y2="-150.0" />
<line class="line" x1="0" x2="1100" y1="-250.0" y2="-250.0" />
<line class="line" x1="0" x2="1100" y1="-350.0" y2="-350.0" />
<line class="line" x1="0" x2="1100" y1="-450.0" y2="-450.0" />
<line class="line" x1="0" x2="1100" y1="-550.0" y2="-550.0" />
<line class="line" x1="0" x2="1100" y1="-650.0" y2="-650.0" />
<line class="line" x1="0" x2="1100" y1="-750.0" y2="-750.0" />
<line class="line" x1="0" x2="1100" y1="-850.0" y2="-850.0" />
<line class="line" x1="0" x2="1100" y1="-950.0" y2="-950.0" />
<line class="line" x1="0" x2="1100" y1="-1050.0" y2="-1050.0" />
<use href="#obstacle" x="65" y="-135" />
<use href="#obstacle" x="65" y="-235" />
<use href="#obstacle" x="65" y="-335" />
<use href="#obstacle" x="65" y="-435" />
<use href="#obstacle" x="65" y="-535" />
<use href="#obstacle" x="65" y="-635" />
<use href="#obstacle" x="65" y="-735" />
<use href="#obstacle" x="65" y="-835" />
<use href="#obstacle" x="65" y="-935" />
<use href="#obstacle" x="65" y="-1035" />
<use href="#obstacle" x="165" y="-135" />
<use href="#obstacle" x="165" y="-1035" />
<use href="#obstacle" x="265" y="-135" />
<use href="#obstacle" x="265" y="-1035" />
<use href="#obstacle" x="365" y="-135" />
<use href="#obstacle" x="365" y="-1035" />
<use href="#obstacle" x="465" y="-135" />
<use href="#obstacle" x="465" y="-1035" />
<use href="#obstacle" x="565" y="-135" />
<use href="#obstacle" x="565" y="-1035" />
<use href="#obstacle" x="665" y="-135" />
<use href="#obstacle" x="665" y="-1035" />
<use href="#obstacle" x="765" y="-135" />
<use href="#obstacle" x="765" y="-1035" />
<use href="#obstacle" x="865" y="-135" />
<use href="#obstacle" x="865" y="-1035" />
<use href="#obstacle" x="965" y="-135" />
<use href="#obstacle" x="965" y="-235" />
<use href="#obstacle" x="965" y="-335" />
<use href="#obstacle" x="965" y="-435" />
<use href="#obstacle" x="965" y="-535" />
<use href="#obstacle" x="965" y="-635" />
<use href="#obstacle" x="965" y="-735" />
<use href="#obstacle" x="965" y="-835" />
<use href="#obstacle" x="965" y="-935" />
<use href="#obstacle" x="965" y="-1035" />
<circle class="agent" cx="700" cy="-600" fill="#c1433c" r="35"> <animate attributeName="cy" dur="1.5s" keyTimes="0.0;0.1428571429;0.5714285714;0.7142857143;0.8571428571;1.0" repeatCount="indefinite" values="-600;-600;-600;-500;-400;-400"/>
<animate attributeName="cx" dur="1.5s" keyTimes="0.0;0.1428571429;0.2857142857;0.4285714286;0.5714285714;1.0" repeatCount="indefinite" values="700;700;600;500;400;400"/>
<animate attributeName="visibility" dur="1.5s" keyTimes="0.0;0.1428571429;0.7142857143;0.8571428571;1.0" repeatCount="indefinite" values="visible;visible;visible;hidden;hidden"/> </circle>
<circle class="agent" cx="400" cy="-700" fill="#2e6f9e" r="35"> <animate attributeName="cy" dur="1.5s" keyTimes="0.0;0.1428571429;0.4285714286;0.5714285714;1.0" repeatCount="indefinite" values="-700;-700;-700;-600;-600"/>
<animate attributeName="cx" dur="1.5s" keyTimes="0.0;0.1428571429;0.2857142857;0.4285714286;1.0" repeatCount="indefinite" values="400;400;300;200;200"/>
<animate attributeName="visibility" dur="1.5s" keyTimes="0.0;0.1428571429;0.4285714286;0.5714285714;1.0" repeatCount="indefinite" values="visible;visible;visible;hidden;hidden"/> </circle>
<circle class="target" cx="400" cy="-400" r="35" stroke="#c1433c"> <animate attributeName="visibility" dur="1.5s" keyTimes="0.0;0.1428571429;0.7142857143;0.8571428571;1.0" repeatCount="indefinite" values="visible;visible;visible;hidden;hidden"/> </circle>
<circle class="target" cx="200" cy="-600" r="35" stroke="#2e6f9e"> <animate attributeName="visibility" dur="1.5s" keyTimes="0.0;0.1428571429;0.4285714286;0.5714285714;1.0" repeatCount="indefinite" values="visible;visible;visible;hidden;hidden"/> </circle>
</svg>