<?xml version="1.0" encoding="UTF-8"?>
        <svg xmlns="http://www.w3.org/2000/svg" xmlns:xlink="http://www.w3.org/1999/xlink"
             width="512" height="512" viewBox="0 -1900 1900 1900">
<defs>

        <rect id="obstacle" width="70" height="70" fill="#84A1AE" rx="15"/>
        <style>
        .line {stroke: #84A1AE; stroke-width: 10;}
        .agent {r: 35;}
        .target {fill: none; stroke-width: 10; r: 35;}
        </style>
        
</defs>

<line class="line" x1="-50.0" x2="-50.0" y1="0" y2="-1900" />
<line class="line" x1="50.0" x2="50.0" y1="0" y2="-1900" />
<line class="line" x1="150.0" x2="150.0" y1="0" y2="-1900" />
<line class="line" x1="250.0" x2="250.0" y1="0" y2="-1900" />
<line class="line" x1="350.0" x2="350.0" y1="0" y2="-1900" />
<line class="line" x1="450.0" x2="450.0" y1="0" y2="-1900" />
<line class="line" x1="550.0" x2="550.0" y1="0" y2="-1900" />
<line class="line" x1="650.0" x2="650.0" y1="0" y2="-1900" />
<line class="line" x1="750.0" x2="750.0" y1="0" y2="-1900" />
<line class="line" x1="850.0" x2="850.0" y1="0" y2="-1900" />
<line class="line" x1="950.0" x2="950.0" y1="0" y2="-1900" />
<line class="line" x1="1050.0" x2="1050.0" y1="0" y2="-1900" />
<line class="line" x1="1150.0" x2="1150.0" y1="0" y2="-1900" />
<line class="line" x1="1250.0" x2="1250.0" y1="0" y2="-1900" />
<line class="line" x1="1350.0" x2="1350.0" y1="0" y2="-1900" />
<line class="line" x1="1450.0" x2="1450.0" y1="0" y2="-1900" />
<line class="line" x1="1550.0" x2="1550.0" y1="0" y2="-1900" />
<line class="line" x1="1650.0" x2="1650.0" y1="0" y2="-1900" />
<line class="line" x1="1750.0" x2="1750.0" y1="0" y2="-1900" />
<line class="line" x1="1850.0" x2="1850.0" y1="0" y2="-1900" />
<line class="line" x1="0" x2="1900" y1="50.0" y2="50.0" />
<line class="line" x1="0" x2="1900" y1="-50.0" y2="-50.0" />
<line class="line" x1="0" x2="1900" y1="-150.0" y2="-150.0" />
<line class="line" x1="0" x2="1900" y1="-250.0" y2="-250.0" />
<line class="line" x1="0" x2="1900" y1="-350.0" y2="-350.0" />
<line class="line" x1="0" x2="1900" y1="-450.0" y2="-450.0" />
<line class="line" x1="0" x2="1900" y1="-550.0" y2="-550.0" />
<line class="line" x1="0" x2="1900" y1="-650.0" y2="-650.0" />
<line class="line" x1="0" x2="1900" y1="-750.0" y2="-750.0" />
<line class="line" x1="0" x2="1900" y1="-850.0" y2="-850.0" />
<line class="line" x1="0" x2="1900" y1="-950.0" y2="-950.0" />
<line class="line" x1="0" x2="1900" y1="-1050.0" y2="-1050.0" />
<line class="line" x1="0" x2="1900" y1="-1150.0" y2="-1150.0" />
<line class="line" x1="0" x2="1900" y1="-1250.0" y2="-1250.0" />
<line class="line" x1="0" x2="1900" y1="-1350.0" y2="-1350.0" />
<line class="line" x1="0" x2="1900" y1="-1450.0" y2="-1450.0" />
<line class="line" x1="0" x2="1900" y1="-1550.0" y2="-1550.0" />
<line class="line" x1="0" x2="1900" y1="-1650.0" y2="-1650.0" />
<line class="line" x1="0" x2="1900" y1="-1750.0" y2="-1750.0" />
<line class="line" x1="0" x2="1900" y1="-1850.0" y2="-1850.0" />
<use href="#obstacle" x="65" y="-135" />
<use href="#obstacle" x="65" y="-235" />
<use href="#obstacle" x="65" y="-335" />
<use href="#obstacle" x="65" y="-435" />
<use href="#obstacle" x="65" y="-535" />
<use href="#obstacle" x="65" y="-635" />
<use href="#obstacle" x="65" y="-735" />
<use href="#obstacle" x="65" y="-835" />
<use href="#obstacle" x="65" y="-935" />
<use href="#obstacle" x="65" y="-1035" />
<use href="#obstacle" x="65" y="-1135" />
<use href="#obstacle" x="65" y="-1235" />
<use href="#obstacle" x="65" y="-1335" />
<use href="#obstacle" x="65" y="-1435" />
<use href="#obstacle" x="65" y="-1535" />
<use href="#obstacle" x="65" y="-1635" />
<use href="#obstacle" x="65" y="-1735" />
<use href="#obstacle" x="65" y="-1835" />
<use href="#obstacle" x="165" y="-135" />
<use href="#obstacle" x="165" y="-1835" />
<use href="#obstacle" x="265" y="-135" />
<use href="#obstacle" x="265" y="-1835" />
<use href="#obstacle" x="365" y="-135" />
<use href="#obstacle" x="365" y="-1835" />
<use href="#obstacle" x="465" y="-135" />
<use href="#obstacle" x="465" y="-635" />
<use href="#obstacle" x="465" y="-735" />
<use href="#obstacle" x="465" y="-835" />
<use href="#obstacle" x="465" y="-935" />
<use href="#obstacle" x="465" y="-1235" />
<use href="#obstacle" x="465" y="-1335" />
<use href="#obstacle" x="465" y="-1435" />
<use href="#obstacle" x="465" y="-1535" />
<use href="#obstacle" x="465" y="-1835" />
<use href="#obstacle" x="565" y="-135" />
<use href="#obstacle" x="565" y="-635" />
<use href="#obstacle" x="565" y="-735" />
<use href="#obstacle" x="565" y="-835" />
<use href="#obstacle" x="565" y="-935" />
<use href="#obstacle" x="565" y="-1235" />
<use href="#obstacle" x="565" y="-1335" />
<use href="#obstacle" x="565" y="-1435" />
<use href="#obstacle" x="565" y="-1535" />
<use href="#obstacle" x="565" y="-1835" />
<use href="#obstacle" x="665" y="-135" />
<use href="#obstacle" x="665" y="-1835" />
<use href="#obstacle" x="765" y="-135" />
<use href="#obstacle" x="765" y="-635" />
<use href="#obstacle" x="765" y="-735" />
<use href="#obstacle" x="765" y="-835" />
<use href="#obstacle" x="765" y="-935" />
<use href="#obstacle" x="765" y="-1235" />
<use href="#obstacle" x="765" y="-1335" />
<use href="#obstacle" x="765" y="-1435" />
<use href="#obstacle" x="765" y="-1535" />
<use href="#obstacle" x="765" y="-1835" />
<use href="#obstacle" x="865" y="-135" />
<use href="#obstacle" x="865" y="-635" />
<use href="#obstacle" x="865" y="-735" />
<use href="#obstacle" x="865" y="-835" />
<use href="#obstacle" x="865" y="-935" />
<use href="#obstacle" x="865" y="-1235" />
<use href="#obstacle" x="865" y="-1335" />
<use href="#obstacle" x="865" y="-1435" />
<use href="#obstacle" x="865" y="-1535" />
<use href="#obstacle" x="865" y="-1835" />
<use href="#obstacle" x="965" y="-135" />
<use href="#obstacle" x="965" y="-235" />
<use href="#obstacle" x="965" y="-1835" />
<use href="#obstacle" x="1065" y="-135" />
<use href="#obstacle" x="1065" y="-1835" />
<use href="#obstacle" x="1165" y="-135" />
<use href="#obstacle" x="1165" y="-635" />
<use href="#obstacle" x="1165" y="-735" />
<use href="#obstacle" x="1165" y="-835" />
<use href="#obstacle" x="1165" y="-935" />
<use href="#obstacle" x="1165" y="-1235" />
<use href="#obstacle" x="1165" y="-1335" />
<use href="#obstacle" x="1165" y="-1435" />
<use href="#obstacle" x="1165" y="-1535" />
<use href="#obstacle" x="1165" y="-1835" />
<use href="#obstacle" x="1265" y="-135" />
<use href="#obstacle" x="1265" y="-235" />
<use href="#obstacle" x="1265" y="-635" />
<use href="#obstacle" x="1265" y="-735" />
<use href="#obstacle" x="1265" y="-835" />
<use href="#obstacle" x="1265" y="-935" />
<use href="#obstacle" x="1265" y="-1235" />
<use href="#obstacle" x="1265" y="-1335" />
<use href="#obstacle" x="1265" y="-1435" />
<use href="#obstacle" x="1265" y="-1535" />
<use href="#obstacle" x="1265" y="-1835" />
<use href="#obstacle" x="1365" y="-135" />
<use href="#obstacle" x="1365" y="-1835" />
<use href="#obstacle" x="1465" y="-135" />
<use href="#obstacle" x="1465" y="-635" />
<use href="#obstacle" x="1465" y="-735" />
<use href="#obstacle" x="1465" y="-835" />
<use href="#obstacle" x="1465" y="-935" />
<use href="#obstacle" x="1465" y="-1235" />
<use href="#obstacle" x="1465" y="-1335" />
<use href="#obstacle" x="1465" y="-1435" />
<use href="#obstacle" x="1465" y="-1535" />
<use href="#obstacle" x="1465" y="-1835" />
<use href="#obstacle" x="1565" y="-135" />
<use href="#obstacle" x="1565" y="-235" />
<use href="#obstacle" x="1565" y="-635" />
<use href="#obstacle" x="1565" y="-735" />
<use href="#obstacle" x="1565" y="-835" />
<use href="#obstacle" x="1565" y="-935" />
<use href="#obstacle" x="1565" y="-1235" />
<use href="#obstacle" x="1565" y="-1335" />
<use href="#obstacle" x="1565" y="-1435" />
<use href="#obstacle" x="1565" y="-1535" />
<use href="#obstacle" x="1565" y="-1835" />
<use href="#obstacle" x="1665" y="-135" />
<use href="#obstacle" x="1665" y="-1835" />
<use href="#obstacle" x="1765" y="-135" />
<use href="#obstacle" x="1765" y="-235" />
<use href="#obstacle" x="1765" y="-335" />
<use href="#obstacle" x="1765" y="-435" />
<use href="#obstacle" x="1765" y="-535" />
<use href="#obstacle" x="1765" y="-635" />
<use href="#obstacle" x="1765" y="-735" />
<use href="#obstacle" x="1765" y="-835" />
<use href="#obstacle" x="1765" y="-935" />
<use href="#obstacle" x="1765" y="-1035" />
<use href="#obstacle" x="1765" y="-1135" />
<use href="#obstacle" x="1765" y="-1235" />
<use href="#obstacle" x="1765" y="-1335" />
<use href="#obstacle" x="1765" y="-1435" />
<use href="#obstacle" x="1765" y="-1535" />
<use href="#obstacle" x="1765" y="-1635" />
<use href="#obstacle" x="1765" y="-1735" />
<use href="#obstacle" x="1765" y="-1835" />
<circle class="agent" cx="300" cy="-300" fill="#c1433c" r="35"> <animate attributeName="cy" dur="31.5s" keyTimes="0.0;0.0078740157;0.0157480315;0.0236220472;0.2362204724;0.2440944882;0.2519685039;0.2755905512;0.2834645669;0.2913385827;0.3307086614;0.3385826772;0.3464566929;0.3543307087;0.3622047244;0.3700787402;0.3779527559;0.4488188976;0.4566929134;0.4645669291;0.4724409449;0.4803149606;0.4881889764;0.4960629921;0.5354330709;0.5433070866;0.5511811024;1.0" repeatCount="indefinite" values="-300;-300;-400;-500;-500;-400;-300;-300;-400;-500;-500;-600;-700;-800;-900;-1000;-1100;-1100;-1000;-900;-800;-700;-600;-500;-500;-400;-300;-300"/>
<animate attributeName="cx" dur="31.5s" keyTimes="0.0;0.0078740157;0.062992126;0.0708661417;0.0866141732;0.094488189;0.1023622047;0.1102362205;0.1338582677;0.1417322835;0.1496062992;0.157480315;0.1732283465;0.1811023622;0.188976378;0.2125984252;0.2204724409;0.3070866142;0.3149606299;0.3937007874;0.4015748031;0.4251968504;0.4330708661;0.5118110236;0.5196850394;0.5748031496;0.5826771654;0.5905511811;0.5984251969;0.6062992126;0.6141732283;0.6220472441;0.6299212598;0.6377952756;0.6456692913;0.6535433071;1.0" repeatCount="indefinite" values="300;300;300;400;400;500;600;700;700;800;900;1000;1000;1100;1200;1200;1300;1300;1400;1400;1500;1500;1400;1400;1300;1300;1200;1100;1000;900;800;700;600;500;400;300;300"/>
<animate attributeName="visibility" dur="31.5s" keyTimes="0.0;0.0078740157;0.6456692913;0.6535433071;1.0" repeatCount="indefinite" values="visible;visible;visible;hidden;hidden"/> </circle>
<circle class="agent" cx="400" cy="-300" fill="#2e6f9e" r="35"> <animate attributeName="cy" dur="31.5s" keyTimes="0.0;0.0078740157;0.0157480315;0.0236220472;0.1653543307;0.1732283465;0.2598425197;0.2677165354;0.2913385827;0.2992125984;0.3070866142;0.3543307087;0.3622047244;0.3700787402;0.3779527559;0.3858267717;0.3937007874;0.4015748031;0.4094488189;0.4173228346;0.4251968504;0.4330708661;0.4409448819;0.4488188976;0.5275590551;0.5354330709;0.5433070866;0.5511811024;0.5590551181;0.5669291339;0.5748031496;0.5826771654;0.5905511811;0.5984251969;0.6062992126;0.6141732283;0.6220472441;0.6692913386;0.6771653543;0.6850393701;1.0" repeatCount="indefinite" values="-300;-300;-400;-500;-500;-400;-400;-300;-300;-400;-500;-500;-600;-700;-800;-900;-1000;-1000;-1100;-1200;-1300;-1400;-1500;-1600;-1600;-1500;-1500;-1400;-1300;-1200;-1100;-1000;-900;-800;-700;-600;-500;-500;-400;-300;-300"/>
<animate attributeName="cx" dur="31.5s" keyTimes="0.0;0.0078740157;0.0551181102;0.062992126;0.0787401575;0.0866141732;0.094488189;0.1023622047;0.125984252;0.1338582677;0.1417322835;0.1496062992;0.188976378;0.1968503937;0.2047244094;0.2204724409;0.2283464567;0.2362204724;0.2440944882;0.3228346457;0.3307086614;0.3385826772;0.4645669291;0.4724409449;0.4803149606;0.5039370079;0.5118110236;0.6377952756;0.6456692913;0.6535433071;0.7086614173;0.7165354331;0.7244094488;0.7559055118;0.7637795276;0.7716535433;0.7795275591;0.7874015748;0.7952755906;0.8031496063;0.811023622;1.0" repeatCount="indefinite" values="400;400;400;500;500;600;700;800;800;900;1000;1100;1100;1200;1300;1300;1400;1500;1600;1600;1500;1400;1400;1300;1200;1200;1100;1100;1200;1300;1300;1200;1100;1100;1000;900;800;700;600;500;400;400"/>
<animate attributeName="visibility" dur="31.5s" keyTimes="0.0;0.0078740157;0.8031496063;0.811023622;1.0" repeatCount="indefinite" values="visible;visible;visible;hidden;hidden"/> </circle>
<circle class="agent" cx="500" cy="-300" fill="#6e81af" r="35"> <animate attributeName="cy" dur="31.5s" keyTimes="0.0;0.0078740157;0.0157480315;0.0236220472;0.188976378;0.1968503937;0.2125984252;0.2204724409;0.2834645669;0.2913385827;0.2992125984;0.3228346457;0.3307086614;0.3385826772;0.3464566929;0.3543307087;0.3622047244;0.3700787402;0.3779527559;0.3858267717;0.4724409449;0.4803149606;0.4881889764;0.4960629921;0.5039370079;0.5118110236;0.6220472441;0.6299212598;0.6377952756;0.6456692913;0.6535433071;0.6614173228;0.6692913386;0.6771653543;0.6850393701;0.6929133858;0.7007874016;0.7086614173;0.7165354331;0.7244094488;1.0" repeatCount="indefinite" values="-300;-300;-400;-500;-500;-400;-400;-500;-500;-400;-300;-300;-400;-500;-600;-700;-800;-900;-1000;-1100;-1100;-1200;-1300;-1400;-1500;-1600;-1600;-1500;-1400;-1300;-1200;-1100;-1000;-900;-800;-700;-600;-500;-400;-300;-300"/>
<animate attributeName="cx" dur="31.5s" keyTimes="0.0;0.0078740157;0.0472440945;0.0551181102;0.0708661417;0.0787401575;0.0866141732;0.094488189;0.1023622047;0.1102362205;0.1181102362;0.125984252;0.1338582677;0.1417322835;0.1653543307;0.1732283465;0.2362204724;0.2440944882;0.2519685039;0.2598425197;0.2677165354;0.4015748031;0.4094488189;0.4173228346;0.4251968504;0.4488188976;0.4566929134;0.5275590551;0.5354330709;0.5590551181;0.5669291339;0.5748031496;0.5826771654;0.5905511811;0.5984251969;0.6062992126;0.7480314961;0.7559055118;0.7637795276;0.7716535433;0.7795275591;0.7874015748;1.0" repeatCount="indefinite" values="500;500;500;600;600;700;800;900;1000;1100;1200;1300;1400;1500;1500;1400;1400;1300;1200;1100;1000;1000;1100;1200;1300;1300;1400;1400;1500;1500;1400;1300;1200;1100;1100;1000;1000;900;800;700;600;500;500"/>
<animate attributeName="visibility" dur="31.5s" keyTimes="0.0;0.0078740157;0.7795275591;0.7874015748;1.0" repeatCount="indefinite" values="visible;visible;visible;hidden;hidden"/> </circle>
<circle class="agent" cx="600" cy="-300" fill="#00b9c8" r="35"> <animate attributeName="cy" dur="31.5s" keyTimes="0.0;0.0078740157;0.0157480315;0.0236220472;0.062992126;0.0708661417;0.0787401575;0.0866141732;0.094488189;0.1023622047;0.1102362205;0.188976378;0.1968503937;0.2047244094;0.2125984252;0.2204724409;0.2283464567;0.2362204724;0.2440944882;0.3307086614;0.3385826772;0.3622047244;0.3700787402;0.3779527559;0.4488188976;0.4566929134;0.4645669291;0.4724409449;0.4803149606;0.4881889764;0.4960629921;0.5039370079;0.5118110236;0.5196850394;0.5590551181;0.5669291339;0.5748031496;0.7401574803;0.7480314961;0.7559055118;0.7637795276;0.7716535433;0.7795275591;0.7874015748;0.7952755906;0.8031496063;0.811023622;0.8188976378;0.8267716535;0.874015748;0.8818897638;0.8897637795;1.0" repeatCount="indefinite" values="-300;-300;-400;-500;-500;-600;-700;-800;-900;-1000;-1100;-1100;-1000;-900;-800;-700;-600;-500;-400;-400;-300;-300;-400;-500;-500;-600;-700;-800;-900;-1000;-1100;-1200;-1300;-1400;-1400;-1500;-1600;-1600;-1500;-1400;-1300;-1200;-1100;-1000;-900;-800;-700;-600;-500;-500;-400;-300;-300"/>
<animate attributeName="cx" dur="31.5s" keyTimes="0.0;0.0078740157;0.0393700787;0.0472440945;0.125984252;0.1338582677;0.157480315;0.1653543307;0.1732283465;0.2598425197;0.2677165354;0.2755905512;0.2834645669;0.2913385827;0.2992125984;0.3070866142;0.3149606299;0.3937007874;0.4015748031;0.4094488189;0.4173228346;0.4251968504;0.4330708661;0.5354330709;0.5433070866;0.5905511811;0.5984251969;0.6062992126;0.6141732283;0.6220472441;0.6299212598;0.6535433071;0.6614173228;0.6692913386;0.6771653543;0.6850393701;0.6929133858;0.7007874016;0.7086614173;0.7165354331;0.7244094488;0.842519685;0.8503937008;0.8582677165;0.9133858268;0.9212598425;0.9291338583;0.937007874;0.9448818898;0.9527559055;0.9606299213;0.968503937;0.9763779528;0.9842519685;0.9921259843;1.0" repeatCount="indefinite" values="600;600;600;700;700;800;800;900;1000;1000;1100;1200;1200;1300;1400;1500;1600;1600;1500;1400;1300;1200;1100;1100;1000;1000;900;800;700;600;500;500;600;700;800;900;1000;1100;1200;1300;1400;1400;1500;1600;1600;1500;1400;1300;1200;1100;1000;900;800;700;600;600"/>
<animate attributeName="visibility" dur="31.5s" keyTimes="0.0;0.0078740157;0.9842519685;0.9921259843;1.0" repeatCount="indefinite" values="visible;visible;visible;hidden;hidden"/> </circle>
<circle class="target" cx="300" cy="-300" r="35" stroke="#c1433c"> <animate attributeName="visibility" dur="31.5s" keyTimes="0.0;0.0078740157;0.6456692913;0.6535433071;1.0" repeatCount="indefinite" values="visible;visible;visible;hidden;hidden"/> </circle>
<circle class="target" cx="400" cy="-300" r="35" stroke="#2e6f9e"> <animate attributeName="visibility" dur="31.5s" keyTimes="0.0;0.0078740157;0.8031496063;0.811023622;1.0" repeatCount="indefinite" values="visible;visible;visible;hidden;hidden"/> </circle>
<circle class="target" cx="500" cy="-300" r="35" stroke="#6e81af"> <animate attributeName="visibility" dur="31.5s" keyTimes="0.0;0.0078740157;0.7795275591;0.7874015748;1.0" repeatCount="indefinite" values="visible;visible;visible;hidden;hidden"/> </circle>
<circle class="target" cx="600" cy="-300" r="35" stroke="#00b9c8"> <animate attributeName="visibility" dur="31.5s" keyTimes="0.0;0.0078740157;0.9842519685;0.9921259843;1.0" repeatCount="indefinite" values="visible;visible;visible;hidden;hidden"/> </circle>
</svg>