<?xml version="1.0" encoding="UTF-8"?>
        <svg xmlns="http://www.w3.org/2000/svg" xmlns:xlink="http://www.w3.org/1999/xlink"
             width="512" height="512" viewBox="0 -1900 1900 1900">
<defs>

        <rect id="obstacle" width="70" height="70" fill="#84A1AE" rx="15"/>
        <style>
        .line {stroke: #84A1AE; stroke-width: 10;}
        .agent {r: 35;}
        .target {fill: none; stroke-width: 10; r: 35;}
        </style>
        
</defs>

<line class="line" x1="-50.0" x2="-50.0" y1="0" y2="-1900" />
<line class="line" x1="50.0" x2="50.0" y1="0" y2="-1900" />
<line class="line" x1="150.0" x2="150.0" y1="0" y2="-1900" />
<line class="line" x1="250.0" x2="250.0" y1="0" y2="-1900" />
<line class="line" x1="350.0" x2="350.0" y1="0" y2="-1900" />
<line class="line" x1="450.0" x2="450.0" y1="0" y2="-1900" />
<line class="line" x1="550.0" x2="550.0" y1="0" y2="-1900" />
<line class="line" x1="650.0" x2="650.0" y1="0" y2="-1900" />
<line class="line" x1="750.0" x2="750.0" y1="0" y2="-1900" />
<line class="line" x1="850.0" x2="850.0" y1="0" y2="-1900" />
<line class="line" x1="950.0" x2="950.0" y1="0" y2="-1900" />
<line class="line" x1="1050.0" x2="1050.0" y1="0" y2="-1900" />
<line class="line" x1="1150.0" x2="1150.0" y1="0" y2="-1900" />
<line class="line" x1="1250.0" x2="1250.0" y1="0" y2="-1900" />
<line class="line" x1="1350.0" x2="1350.0" y1="0" y2="-1900" />
<line class="line" x1="1450.0" x2="1450.0" y1="0" y2="-1900" />
<line class="line" x1="1550.0" x2="1550.0" y1="0" y2="-1900" />
<line class="line" x1="1650.0" x2="1650.0" y1="0" y2="-1900" />
<line class="line" x1="1750.0" x2="1750.0" y1="0" y2="-1900" />
<line class="line" x1="1850.0" x2="1850.0" y1="0" y2="-1900" />
<line class="line" x1="0" x2="1900" y1="50.0" y2="50.0" />
<line class="line" x1="0" x2="1900" y1="-50.0" y2="-50.0" />
<line class="line" x1="0" x2="1900" y1="-150.0" y2="-150.0" />
<line class="line" x1="0" x2="1900" y1="-250.0" y2="-250.0" />
<line class="line" x1="0" x2="1900" y1="-350.0" y2="-350.0" />
<line class="line" x1="0" x2="1900" y1="-450.0" y2="-450.0" />
<line class="line" x1="0" x2="1900" y1="-550.0" y2="-550.0" />
<line class="line" x1="0" x2="1900" y1="-650.0" y2="-650.0" />
<line class="line" x1="0" x2="1900" y1="-750.0" y2="-750.0" />
<line class="line" x1="0" x2="1900" y1="-850.0" y2="-850.0" />
<line class="line" x1="0" x2="1900" y1="-950.0" y2="-950.0" />
<line class="line" x1="0" x2="1900" y1="-1050.0" y2="-1050.0" />
<line class="line" x1="0" x2="1900" y1="-1150.0" y2="-1150.0" />
<line class="line" x1="0" x2="1900" y1="-1250.0" y2="-1250.0" />
<line class="line" x1="0" x2="1900" y1="-1350.0" y2="-1350.0" />
<line class="line" x1="0" x2="1900" y1="-1450.0" y2="-1450.0" />
<line class="line" x1="0" x2="1900" y1="-1550.0" y2="-1550.0" />
<line class="line" x1="0" x2="1900" y1="-1650.0" y2="-1650.0" />
<line class="line" x1="0" x2="1900" y1="-1750.0" y2="-1750.0" />
<line class="line" x1="0" x2="1900" y1="-1850.0" y2="-1850.0" />
<use href="#obstacle" x="65" y="-135" />
<use href="#obstacle" x="65" y="-235" />
<use href="#obstacle" x="65" y="-335" />
<use href="#obstacle" x="65" y="-435" />
<use href="#obstacle" x="65" y="-535" />
<use href="#obstacle" x="65" y="-635" />
<use href="#obstacle" x="65" y="-735" />
<use href="#obstacle" x="65" y="-835" />
<use href="#obstacle" x="65" y="-935" />
<use href="#obstacle" x="65" y="-1035" />
<use href="#obstacle" x="65" y="-1135" />
<use href="#obstacle" x="65" y="-1235" />
<use href="#obstacle" x="65" y="-1335" />
<use href="#obstacle" x="65" y="-1435" />
<use href="#obstacle" x="65" y="-1535" />
<use href="#obstacle" x="65" y="-1635" />
<use href="#obstacle" x="65" y="-1735" />
<use href="#obstacle" x="65" y="-1835" />
<use href="#obstacle" x="165" y="-135" />
<use href="#obstacle" x="165" y="-1835" />
<use href="#obstacle" x="265" y="-135" />
<use href="#obstacle" x="265" y="-1835" />
<use href="#obstacle" x="365" y="-135" />
<use href="#obstacle" x="365" y="-1835" />
<use href="#obstacle" x="465" y="-135" />
<use href="#obstacle" x="465" y="-635" />
<use href="#obstacle" x="465" y="-735" />
<use href="#obstacle" x="465" y="-835" />
<use href="#obstacle" x="465" y="-935" />
<use href="#obstacle" x="465" y="-1235" />
<use href="#obstacle" x="465" y="-1335" />
<use href="#obstacle" x="465" y="-1435" />
<use href="#obstacle" x="465" y="-1535" />
<use href="#obstacle" x="465" y="-1835" />
<use href="#obstacle" x="565" y="-135" />
<use href="#obstacle" x="565" y="-635" />
<use href="#obstacle" x="565" y="-735" />
<use href="#obstacle" x="565" y="-835" />
<use href="#obstacle" x="565" y="-935" />
<use href="#obstacle" x="565" y="-1235" />
<use href="#obstacle" x="565" y="-1335" />
<use href="#obstacle" x="565" y="-1435" />
<use href="#obstacle" x="565" y="-1535" />
<use href="#obstacle" x="565" y="-1835" />
<use href="#obstacle" x="665" y="-135" />
<use href="#obstacle" x="665" y="-1835" />
<use href="#obstacle" x="765" y="-135" />
<use href="#obstacle" x="765" y="-635" />
<use href="#obstacle" x="765" y="-735" />
<use href="#obstacle" x="765" y="-835" />
<use href="#obstacle" x="765" y="-935" />
<use href="#obstacle" x="765" y="-1235" />
<use href="#obstacle" x="765" y="-1335" />
<use href="#obstacle" x="765" y="-1435" />
<use href="#obstacle" x="765" y="-1535" />
<use href="#obstacle" x="765" y="-1835" />
<use href="#obstacle" x="865" y="-135" />
<use href="#obstacle" x="865" y="-635" />
<use href="#obstacle" x="865" y="-735" />
<use href="#obstacle" x="865" y="-835" />
<use href="#obstacle" x="865" y="-935" />
<use href="#obstacle" x="865" y="-1235" />
<use href="#obstacle" x="865" y="-1335" />
<use href="#obstacle" x="865" y="-1435" />
<use href="#obstacle" x="865" y="-1535" />
<use href="#obstacle" x="865" y="-1835" />
<use href="#obstacle" x="965" y="-135" />
<use href="#obstacle" x="965" y="-1835" />
<use href="#obstacle" x="1065" y="-135" />
<use href="#obstacle" x="1065" y="-1835" />
<use href="#obstacle" x="1165" y="-135" />
<use href="#obstacle" x="1165" y="-635" />
<use href="#obstacle" x="1165" y="-735" />
<use href="#obstacle" x="1165" y="-835" />
<use href="#obstacle" x="1165" y="-935" />
<use href="#obstacle" x="1165" y="-1235" />
<use href="#obstacle" x="1165" y="-1335" />
<use href="#obstacle" x="1165" y="-1435" />
<use href="#obstacle" x="1165" y="-1535" />
<use href="#obstacle" x="1165" y="-1835" />
<use href="#obstacle" x="1265" y="-135" />
<use href="#obstacle" x="1265" y="-635" />
<use href="#obstacle" x="1265" y="-735" />
<use href="#obstacle" x="1265" y="-835" />
<use href="#obstacle" x="1265" y="-935" />
<use href="#obstacle" x="1265" y="-1235" />
<use href="#obstacle" x="1265" y="-1335" />
<use href="#obstacle" x="1265" y="-1435" />
<use href="#obstacle" x="1265" y="-1535" />
<use href="#obstacle" x="1265" y="-1835" />
<use href="#obstacle" x="1365" y="-135" />
<use href="#obstacle" x="1365" y="-1835" />
<use href="#obstacle" x="1465" y="-135" />
<use href="#obstacle" x="1465" y="-635" />
<use href="#obstacle" x="1465" y="-735" />
<use href="#obstacle" x="1465" y="-835" />
<use href="#obstacle" x="1465" y="-935" />
<use href="#obstacle" x="1465" y="-1235" />
<use href="#obstacle" x="1465" y="-1335" />
<use href="#obstacle" x="1465" y="-1435" />
<use href="#obstacle" x="1465" y="-1535" />
<use href="#obstacle" x="1465" y="-1835" />
<use href="#obstacle" x="1565" y="-135" />
<use href="#obstacle" x="1565" y="-635" />
<use href="#obstacle" x="1565" y="-735" />
<use href="#obstacle" x="1565" y="-835" />
<use href="#obstacle" x="1565" y="-935" />
<use href="#obstacle" x="1565" y="-1235" />
<use href="#obstacle" x="1565" y="-1335" />
<use href="#obstacle" x="1565" y="-1435" />
<use href="#obstacle" x="1565" y="-1535" />
<use href="#obstacle" x="1565" y="-1835" />
<use href="#obstacle" x="1665" y="-135" />
<use href="#obstacle" x="1665" y="-1835" />
<use href="#obstacle" x="1765" y="-135" />
<use href="#obstacle" x="1765" y="-235" />
<use href="#obstacle" x="1765" y="-335" />
<use href="#obstacle" x="1765" y="-435" />
<use href="#obstacle" x="1765" y="-535" />
<use href="#obstacle" x="1765" y="-635" />
<use href="#obstacle" x="1765" y="-735" />
<use href="#obstacle" x="1765" y="-835" />
<use href="#obstacle" x="1765" y="-935" />
<use href="#obstacle" x="1765" y="-1035" />
<use href="#obstacle" x="1765" y="-1135" />
<use href="#obstacle" x="1765" y="-1235" />
<use href="#obstacle" x="1765" y="-1335" />
<use href="#obstacle" x="1765" y="-1435" />
<use href="#obstacle" x="1765" y="-1535" />
<use href="#obstacle" x="1765" y="-1635" />
<use href="#obstacle" x="1765" y="-1735" />
<use href="#obstacle" x="1765" y="-1835" />
<circle class="agent" cx="300" cy="-300" fill="#c1433c" r="35"> <animate attributeName="cy" dur="11.75s" keyTimes="0.0;0.0208333333;1.0" repeatCount="indefinite" values="-300;-300;-300"/>
<animate attributeName="cx" dur="11.75s" keyTimes="0.0;0.0208333333;1.0" repeatCount="indefinite" values="300;300;300"/>
<animate attributeName="visibility" dur="11.75s" keyTimes="0.0;0.0208333333;0.0416666667;1.0" repeatCount="indefinite" values="visible;visible;hidden;hidden"/> </circle>
<circle class="agent" cx="400" cy="-300" fill="#2e6f9e" r="35"> <animate attributeName="cy" dur="11.75s" keyTimes="0.0;0.0208333333;0.0416666667;0.0625;0.0833333333;0.1041666667;0.125;0.1458333333;0.1666666667;0.1875;0.2083333333;0.2291666667;0.25;0.2708333333;0.2916666667;0.4375;0.4583333333;0.4791666667;0.5;0.5208333333;0.5416666667;0.5625;0.5833333333;0.6041666667;0.625;0.6458333333;0.6666666667;0.7083333333;0.7291666667;0.75;0.7708333333;0.7916666667;0.9375;0.9583333333;0.9791666667;1.0" repeatCount="indefinite" values="-300;-300;-400;-500;-600;-700;-800;-900;-1000;-1100;-1200;-1300;-1400;-1500;-1600;-1600;-1500;-1400;-1300;-1200;-1100;-1000;-900;-800;-700;-600;-500;-500;-400;-300;-400;-500;-500;-400;-300;-300"/>
<animate attributeName="cx" dur="11.75s" keyTimes="0.0;0.0208333333;0.2916666667;0.3125;0.3333333333;0.3541666667;0.375;0.3958333333;0.4166666667;0.4375;0.6666666667;0.6875;0.7083333333;0.7916666667;0.8125;0.8333333333;0.8541666667;0.875;0.8958333333;0.9166666667;0.9375;1.0" repeatCount="indefinite" values="400;400;400;500;600;700;800;900;1000;1100;1100;1200;1300;1300;1400;1500;1400;1300;1200;1100;1000;1000"/>
<animate attributeName="visibility" dur="11.75s" keyTimes="0.0;0.0208333333;0.9583333333;0.9791666667;1.0" repeatCount="indefinite" values="visible;visible;visible;hidden;hidden"/> </circle>
<circle class="agent" cx="500" cy="-300" fill="#6e81af" r="35"> <animate attributeName="cy" dur="11.75s" keyTimes="0.0;0.0208333333;1.0" repeatCount="indefinite" values="-300;-300;-300"/>
<animate attributeName="cx" dur="11.75s" keyTimes="0.0;0.0208333333;1.0" repeatCount="indefinite" values="500;500;500"/>
<animate attributeName="visibility" dur="11.75s" keyTimes="0.0;0.0208333333;0.0416666667;1.0" repeatCount="indefinite" values="visible;visible;hidden;hidden"/> </circle>
<circle class="agent" cx="600" cy="-300" fill="#00b9c8" r="35"> <animate attributeName="cy" dur="11.75s" keyTimes="0.0;0.0208333333;0.0416666667;0.0625;0.0833333333;0.1041666667;0.125;0.1458333333;0.1666666667;0.1875;0.2083333333;0.4791666667;0.5;0.5208333333;0.5416666667;0.5625;0.5833333333;0.6041666667;0.625;0.6458333333;1.0" repeatCount="indefinite" values="-300;-300;-400;-500;-500;-600;-700;-800;-900;-1000;-1100;-1100;-1000;-900;-800;-700;-600;-500;-400;-300;-300"/>
<animate attributeName="cx" dur="11.75s" keyTimes="0.0;0.0208333333;0.0625;0.0833333333;0.2083333333;0.2291666667;0.25;0.2708333333;0.2916666667;0.3125;0.3333333333;0.3541666667;0.375;0.3958333333;0.4166666667;0.4375;0.4583333333;0.4791666667;1.0" repeatCount="indefinite" values="600;600;600;700;700;800;900;1000;1100;1200;1300;1400;1500;1400;1300;1200;1100;1000;1000"/>
<animate attributeName="visibility" dur="11.75s" keyTimes="0.0;0.0208333333;0.625;0.6458333333;1.0" repeatCount="indefinite" values="visible;visible;visible;hidden;hidden"/> </circle>
<circle class="target" cx="300" cy="-300" r="35" stroke="#c1433c"> <animate attributeName="visibility" dur="11.75s" keyTimes="0.0;0.0208333333;0.0416666667;1.0" repeatCount="indefinite" values="visible;visible;hidden;hidden"/> </circle>
<circle class="target" cx="1000" cy="-300" r="35" stroke="#2e6f9e"> <animate attributeName="visibility" dur="11.75s" keyTimes="0.0;0.0208333333;0.9583333333;0.9791666667;1.0" repeatCount="indefinite" values="visible;visible;visible;hidden;hidden"/> </circle>
<circle class="target" cx="500" cy="-300" r="35" stroke="#6e81af"> <animate attributeName="visibility" dur="11.75s" keyTimes="0.0;0.0208333333;0.0416666667;1.0" repeatCount="indefinite" values="visible;visible;hidden;hidden"/> </circle>
<circle class="target" cx="1000" cy="-300" r="35" stroke="#00b9c8"> <animate attributeName="visibility" dur="11.75s" keyTimes="0.0;0.0208333333;0.625;0.6458333333;1.0" repeatCount="indefinite" values="visible;visible;visible;hidden;hidden"/> </circle>
</svg>