<?xml version="1.0" encoding="UTF-8"?>
        <svg xmlns="http://www.w3.org/2000/svg" xmlns:xlink="http://www.w3.org/1999/xlink"
             width="512" height="512" viewBox="0 -1900 1900 1900">
<defs>

        <rect id="obstacle" width="70" height="70" fill="#84A1AE" rx="15"/>
        <style>
        .line {stroke: #84A1AE; stroke-width: 10;}
        .agent {r: 35;}
        .target {fill: none; stroke-width: 10; r: 35;}
        </style>
        
</defs>

<line class="line" x1="-50.0" x2="-50.0" y1="0" y2="-1900" />
<line class="line" x1="50.0" x2="50.0" y1="0" y2="-1900" />
<line class="line" x1="150.0" x2="150.0" y1="0" y2="-1900" />
<line class="line" x1="250.0" x2="250.0" y1="0" y2="-1900" />
<line class="line" x1="350.0" x2="350.0" y1="0" y2="-1900" />
<line class="line" x1="450.0" x2="450.0" y1="0" y2="-1900" />
<line class="line" x1="550.0" x2="550.0" y1="0" y2="-1900" />
<line class="line" x1="650.0" x2="650.0" y1="0" y2="-1900" />
<line class="line" x1="750.0" x2="750.0" y1="0" y2="-1900" />
<line class="line" x1="850.0" x2="850.0" y1="0" y2="-1900" />
<line class="line" x1="950.0" x2="950.0" y1="0" y2="-1900" />
<line class="line" x1="1050.0" x2="1050.0" y1="0" y2="-1900" />
<line class="line" x1="1150.0" x2="1150.0" y1="0" y2="-1900" />
<line class="line" x1="1250.0" x2="1250.0" y1="0" y2="-1900" />
<line class="line" x1="1350.0" x2="1350.0" y1="0" y2="-1900" />
<line class="line" x1="1450.0" x2="1450.0" y1="0" y2="-1900" />
<line class="line" x1="1550.0" x2="1550.0" y1="0" y2="-1900" />
<line class="line" x1="1650.0" x2="1650.0" y1="0" y2="-1900" />
<line class="line" x1="1750.0" x2="1750.0" y1="0" y2="-1900" />
<line class="line" x1="1850.0" x2="1850.0" y1="0" y2="-1900" />
<line class="line" x1="0" x2="1900" y1="50.0" y2="50.0" />
<line class="line" x1="0" x2="1900" y1="-50.0" y2="-50.0" />
<line class="line" x1="0" x2="1900" y1="-150.0" y2="-150.0" />
<line class="line" x1="0" x2="1900" y1="-250.0" y2="-250.0" />
<line class="line" x1="0" x2="1900" y1="-350.0" y2="-350.0" />
<line class="line" x1="0" x2="1900" y1="-450.0" y2="-450.0" />
<line class="line" x1="0" x2="1900" y1="-550.0" y2="-550.0" />
<line class="line" x1="0" x2="1900" y1="-650.0" y2="-650.0" />
<line class="line" x1="0" x2="1900" y1="-750.0" y2="-750.0" />
<line class="line" x1="0" x2="1900" y1="-850.0" y2="-850.0" />
<line class="line" x1="0" x2="1900" y1="-950.0" y2="-950.0" />
<line class="line" x1="0" x2="1900" y1="-1050.0" y2="-1050.0" />
<line class="line" x1="0" x2="1900" y1="-1150.0" y2="-1150.0" />
<line class="line" x1="0" x2="1900" y1="-1250.0" y2="-1250.0" />
<line class="line" x1="0" x2="1900" y1="-1350.0" y2="-1350.0" />
<line class="line" x1="0" x2="1900" y1="-1450.0" y2="-1450.0" />
<line class="line" x1="0" x2="1900" y1="-1550.0" y2="-1550.0" />
<line class="line" x1="0" x2="1900" y1="-1650.0" y2="-1650.0" />
<line class="line" x1="0" x2="1900" y1="-1750.0" y2="-1750.0" />
<line class="line" x1="0" x2="1900" y1="-1850.0" y2="-1850.0" />
<use href="#obstacle" x="65" y="-135" />
<use href="#obstacle" x="65" y="-235" />
<use href="#obstacle" x="65" y="-335" />
<use href="#obstacle" x="65" y="-435" />
<use href="#obstacle" x="65" y="-535" />
<use href="#obstacle" x="65" y="-635" />
<use href="#obstacle" x="65" y="-735" />
<use href="#obstacle" x="65" y="-835" />
<use href="#obstacle" x="65" y="-935" />
<use href="#obstacle" x="65" y="-1035" />
<use href="#obstacle" x="65" y="-1135" />
<use href="#obstacle" x="65" y="-1235" />
<use href="#obstacle" x="65" y="-1335" />
<use href="#obstacle" x="65" y="-1435" />
<use href="#obstacle" x="65" y="-1535" />
<use href="#obstacle" x="65" y="-1635" />
<use href="#obstacle" x="65" y="-1735" />
<use href="#obstacle" x="65" y="-1835" />
<use href="#obstacle" x="165" y="-135" />
<use href="#obstacle" x="165" y="-1835" />
<use href="#obstacle" x="265" y="-135" />
<use href="#obstacle" x="265" y="-1835" />
<use href="#obstacle" x="365" y="-135" />
<use href="#obstacle" x="365" y="-1835" />
<use href="#obstacle" x="465" y="-135" />
<use href="#obstacle" x="465" y="-635" />
<use href="#obstacle" x="465" y="-735" />
<use href="#obstacle" x="465" y="-835" />
<use href="#obstacle" x="465" y="-935" />
<use href="#obstacle" x="465" y="-1235" />
<use href="#obstacle" x="465" y="-1335" />
<use href="#obstacle" x="465" y="-1435" />
<use href="#obstacle" x="465" y="-1535" />
<use href="#obstacle" x="465" y="-1835" />
<use href="#obstacle" x="565" y="-135" />
<use href="#obstacle" x="565" y="-635" />
<use href="#obstacle" x="565" y="-735" />
<use href="#obstacle" x="565" y="-835" />
<use href="#obstacle" x="565" y="-935" />
<use href="#obstacle" x="565" y="-1235" />
<use href="#obstacle" x="565" y="-1335" />
<use href="#obstacle" x="565" y="-1435" />
<use href="#obstacle" x="565" y="-1535" />
<use href="#obstacle" x="565" y="-1835" />
<use href="#obstacle" x="665" y="-135" />
<use href="#obstacle" x="665" y="-1835" />
<use href="#obstacle" x="765" y="-135" />
<use href="#obstacle" x="765" y="-635" />
<use href="#obstacle" x="765" y="-735" />
<use href="#obstacle" x="765" y="-835" />
<use href="#obstacle" x="765" y="-935" />
<use href="#obstacle" x="765" y="-1235" />
<use href="#obstacle" x="765" y="-1335" />
<use href="#obstacle" x="765" y="-1435" />
<use href="#obstacle" x="765" y="-1535" />
<use href="#obstacle" x="765" y="-1835" />
<use href="#obstacle" x="865" y="-135" />
<use href="#obstacle" x="865" y="-635" />
<use href="#obstacle" x="865" y="-735" />
<use href="#obstacle" x="865" y="-835" />
<use href="#obstacle" x="865" y="-935" />
<use href="#obstacle" x="865" y="-1235" />
<use href="#obstacle" x="865" y="-1335" />
<use href="#obstacle" x="865" y="-1435" />
<use href="#obstacle" x="865" y="-1535" />
<use href="#obstacle" x="865" y="-1835" />
<use href="#obstacle" x="965" y="-135" />
<use href="#obstacle" x="965" y="-1835" />
<use href="#obstacle" x="1065" y="-135" />
<use href="#obstacle" x="1065" y="-1835" />
<use href="#obstacle" x="1165" y="-135" />
<use href="#obstacle" x="1165" y="-635" />
<use href="#obstacle" x="1165" y="-735" />
<use href="#obstacle" x="1165" y="-835" />
<use href="#obstacle" x="1165" y="-935" />
<use href="#obstacle" x="1165" y="-1235" />
<use href="#obstacle" x="1165" y="-1335" />
<use href="#obstacle" x="1165" y="-1435" />
<use href="#obstacle" x="1165" y="-1535" />
<use href="#obstacle" x="1165" y="-1835" />
<use href="#obstacle" x="1265" y="-135" />
<use href="#obstacle" x="1265" y="-635" />
<use href="#obstacle" x="1265" y="-735" />
<use href="#obstacle" x="1265" y="-835" />
<use href="#obstacle" x="1265" y="-935" />
<use href="#obstacle" x="1265" y="-1235" />
<use href="#obstacle" x="1265" y="-1335" />
<use href="#obstacle" x="1265" y="-1435" />
<use href="#obstacle" x="1265" y="-1535" />
<use href="#obstacle" x="1265" y="-1835" />
<use href="#obstacle" x="1365" y="-135" />
<use href="#obstacle" x="1365" y="-1835" />
<use href="#obstacle" x="1465" y="-135" />
<use href="#obstacle" x="1465" y="-635" />
<use href="#obstacle" x="1465" y="-735" />
<use href="#obstacle" x="1465" y="-835" />
<use href="#obstacle" x="1465" y="-935" />
<use href="#obstacle" x="1465" y="-1235" />
<use href="#obstacle" x="1465" y="-1335" />
<use href="#obstacle" x="1465" y="-1435" />
<use href="#obstacle" x="1465" y="-1535" />
<use href="#obstacle" x="1465" y="-1835" />
<use href="#obstacle" x="1565" y="-135" />
<use href="#obstacle" x="1565" y="-635" />
<use href="#obstacle" x="1565" y="-735" />
<use href="#obstacle" x="1565" y="-835" />
<use href="#obstacle" x="1565" y="-935" />
<use href="#obstacle" x="1565" y="-1235" />
<use href="#obstacle" x="1565" y="-1335" />
<use href="#obstacle" x="1565" y="-1435" />
<use href="#obstacle" x="1565" y="-1535" />
<use href="#obstacle" x="1565" y="-1835" />
<use href="#obstacle" x="1665" y="-135" />
<use href="#obstacle" x="1665" y="-1835" />
<use href="#obstacle" x="1765" y="-135" />
<use href="#obstacle" x="1765" y="-235" />
<use href="#obstacle" x="1765" y="-335" />
<use href="#obstacle" x="1765" y="-435" />
<use href="#obstacle" x="1765" y="-535" />
<use href="#obstacle" x="1765" y="-635" />
<use href="#obstacle" x="1765" y="-735" />
<use href="#obstacle" x="1765" y="-835" />
<use href="#obstacle" x="1765" y="-935" />
<use href="#obstacle" x="1765" y="-1035" />
<use href="#obstacle" x="1765" y="-1135" />
<use href="#obstacle" x="1765" y="-1235" />
<use href="#obstacle" x="1765" y="-1335" />
<use href="#obstacle" x="1765" y="-1435" />
<use href="#obstacle" x="1765" y="-1535" />
<use href="#obstacle" x="1765" y="-1635" />
<use href="#obstacle" x="1765" y="-1735" />
<use href="#obstacle" x="1765" y="-1835" />
<circle class="agent" cx="300" cy="-300" fill="#c1433c" r="35"> <animate attributeName="cy" dur="21.25s" keyTimes="0.0;0.011627907;0.023255814;0.0348837209;0.0465116279;0.0581395349;0.0697674419;0.0813953488;0.0930232558;0.1046511628;0.1162790698;0.1279069767;0.1395348837;0.1511627907;0.1627906977;0.2674418605;0.2790697674;0.2906976744;0.3023255814;0.3139534884;0.3255813953;0.3372093023;0.3488372093;0.3604651163;0.3720930233;0.3837209302;0.3953488372;0.4186046512;0.4302325581;0.4418604651;0.4534883721;0.4651162791;0.5465116279;0.5581395349;0.5697674419;0.5813953488;0.5930232558;0.7093023256;0.7209302326;0.7325581395;1.0" repeatCount="indefinite" values="-300;-300;-400;-500;-600;-700;-800;-900;-1000;-1100;-1200;-1300;-1400;-1500;-1600;-1600;-1500;-1400;-1300;-1200;-1100;-1000;-900;-800;-700;-600;-500;-500;-400;-300;-400;-500;-500;-400;-300;-400;-500;-500;-400;-300;-300"/>
<animate attributeName="cx" dur="21.25s" keyTimes="0.0;0.011627907;0.1744186047;0.1860465116;0.1976744186;0.2093023256;0.2209302326;0.2325581395;0.2441860465;0.2558139535;0.2674418605;0.3953488372;0.4069767442;0.4186046512;0.4651162791;0.476744186;0.488372093;0.5;0.511627907;0.523255814;0.5348837209;0.5465116279;0.5930232558;0.6046511628;0.6162790698;0.6279069767;0.6395348837;0.6511627907;0.6627906977;0.6744186047;0.6860465116;0.6976744186;0.7093023256;1.0" repeatCount="indefinite" values="300;300;300;400;500;600;700;800;900;1000;1100;1100;1200;1300;1300;1400;1500;1400;1300;1200;1100;1000;1000;900;800;900;1000;1100;1200;1300;1400;1500;1600;1600"/>
<animate attributeName="visibility" dur="21.25s" keyTimes="0.0;0.011627907;0.7209302326;0.7325581395;1.0" repeatCount="indefinite" values="visible;visible;visible;hidden;hidden"/> </circle>
<circle class="agent" cx="400" cy="-300" fill="#2e6f9e" r="35"> <animate attributeName="cy" dur="21.25s" keyTimes="0.0;0.011627907;0.023255814;0.0348837209;0.0465116279;0.0581395349;0.0697674419;0.0813953488;0.0930232558;0.1046511628;0.1162790698;0.1279069767;0.1395348837;0.1511627907;0.1627906977;0.2325581395;0.2441860465;0.2558139535;0.2674418605;0.2790697674;0.2906976744;0.3023255814;0.3139534884;0.3255813953;0.3372093023;0.3488372093;0.3604651163;0.3720930233;0.3837209302;0.3953488372;0.4069767442;0.4186046512;0.4302325581;0.4418604651;0.4534883721;0.4651162791;0.476744186;0.523255814;0.5348837209;0.5465116279;0.5581395349;0.5697674419;0.5813953488;0.5930232558;0.6046511628;0.6162790698;0.6279069767;0.6395348837;0.6511627907;0.6627906977;0.6744186047;0.6860465116;0.6976744186;0.7093023256;0.7209302326;0.7325581395;0.7441860465;0.7558139535;0.7674418605;0.7790697674;0.8139534884;0.8255813953;0.8372093023;0.8488372093;0.8604651163;0.8720930233;0.8837209302;0.8953488372;0.9069767442;0.9186046512;0.9302325581;0.9418604651;0.9651162791;0.976744186;0.988372093;1.0" repeatCount="indefinite" values="-300;-300;-400;-500;-600;-700;-800;-900;-1000;-1100;-1200;-1300;-1400;-1500;-1600;-1600;-1500;-1400;-1300;-1200;-1100;-1000;-900;-800;-700;-600;-500;-400;-300;-400;-500;-600;-700;-800;-900;-1000;-1100;-1100;-1000;-900;-800;-700;-600;-600;-500;-400;-300;-400;-500;-600;-700;-800;-900;-1000;-1100;-1200;-1300;-1400;-1500;-1600;-1600;-1500;-1400;-1300;-1200;-1100;-1000;-900;-800;-700;-600;-500;-500;-400;-300;-300"/>
<animate attributeName="cx" dur="21.25s" keyTimes="0.0;0.011627907;0.1627906977;0.1744186047;0.1860465116;0.1976744186;0.2093023256;0.2209302326;0.2325581395;0.476744186;0.488372093;0.5;0.511627907;0.523255814;0.7790697674;0.7906976744;0.8023255814;0.8139534884;0.9418604651;0.9534883721;0.9651162791;1.0" repeatCount="indefinite" values="400;400;400;500;600;700;800;900;1000;1000;900;800;900;1000;1000;1100;1200;1100;1100;1200;1300;1300"/>
<animate attributeName="visibility" dur="21.25s" keyTimes="0.0;0.011627907;0.976744186;0.988372093;1.0" repeatCount="indefinite" values="visible;visible;visible;hidden;hidden"/> </circle>
<circle class="agent" cx="500" cy="-300" fill="#6e81af" r="35"> <animate attributeName="cy" dur="21.25s" keyTimes="0.0;0.011627907;1.0" repeatCount="indefinite" values="-300;-300;-300"/>
<animate attributeName="cx" dur="21.25s" keyTimes="0.0;0.011627907;1.0" repeatCount="indefinite" values="500;500;500"/>
<animate attributeName="visibility" dur="21.25s" keyTimes="0.0;0.011627907;0.023255814;1.0" repeatCount="indefinite" values="visible;visible;hidden;hidden"/> </circle>
<circle class="agent" cx="600" cy="-300" fill="#00b9c8" r="35"> <animate attributeName="cy" dur="21.25s" keyTimes="0.0;0.011627907;0.023255814;0.0348837209;0.0465116279;0.0581395349;0.0697674419;0.0813953488;0.0930232558;0.1046511628;0.1162790698;0.1279069767;0.1395348837;0.1511627907;0.1627906977;0.1744186047;0.2441860465;0.2558139535;0.2674418605;0.2790697674;0.2906976744;0.3023255814;0.3139534884;0.3255813953;0.3372093023;0.3488372093;0.3604651163;0.3720930233;0.3837209302;0.3953488372;0.4069767442;0.4186046512;0.4302325581;0.4418604651;0.4534883721;0.4651162791;0.476744186;0.488372093;0.5;0.511627907;0.523255814;0.5348837209;0.5465116279;0.5581395349;0.6279069767;0.6395348837;0.6511627907;0.6627906977;0.6744186047;0.6860465116;0.6976744186;0.7093023256;0.7209302326;0.7325581395;0.7441860465;0.7558139535;0.7674418605;0.7790697674;0.7906976744;1.0" repeatCount="indefinite" values="-300;-300;-400;-500;-500;-600;-700;-800;-900;-1000;-1100;-1200;-1300;-1400;-1500;-1600;-1600;-1500;-1400;-1300;-1200;-1100;-1000;-900;-800;-700;-600;-500;-400;-300;-300;-400;-500;-600;-700;-800;-900;-1000;-1100;-1200;-1300;-1400;-1500;-1600;-1600;-1500;-1400;-1300;-1200;-1100;-1000;-900;-800;-700;-600;-500;-500;-400;-300;-300"/>
<animate attributeName="cx" dur="21.25s" keyTimes="0.0;0.011627907;0.0348837209;0.0465116279;0.1744186047;0.1860465116;0.1976744186;0.2093023256;0.2209302326;0.2325581395;0.2441860465;0.3953488372;0.4069767442;0.5581395349;0.5697674419;0.5813953488;0.5930232558;0.6046511628;0.6162790698;0.6279069767;0.7558139535;0.7674418605;1.0" repeatCount="indefinite" values="600;600;600;700;700;800;900;1000;1100;1200;1100;1100;1000;1000;1100;1200;1300;1400;1500;1400;1400;1300;1300"/>
<animate attributeName="visibility" dur="21.25s" keyTimes="0.0;0.011627907;0.7790697674;0.7906976744;1.0" repeatCount="indefinite" values="visible;visible;visible;hidden;hidden"/> </circle>
<circle class="target" cx="1600" cy="-300" r="35" stroke="#c1433c"> <animate attributeName="visibility" dur="21.25s" keyTimes="0.0;0.011627907;0.7209302326;0.7325581395;1.0" repeatCount="indefinite" values="visible;visible;visible;hidden;hidden"/> </circle>
<circle class="target" cx="1300" cy="-300" r="35" stroke="#2e6f9e"> <animate attributeName="visibility" dur="21.25s" keyTimes="0.0;0.011627907;0.976744186;0.988372093;1.0" repeatCount="indefinite" values="visible;visible;visible;hidden;hidden"/> </circle>
<circle class="target" cx="500" cy="-300" r="35" stroke="#6e81af"> <animate attributeName="visibility" dur="21.25s" keyTimes="0.0;0.011627907;0.023255814;1.0" repeatCount="indefinite" values="visible;visible;hidden;hidden"/> </circle>
<circle class="target" cx="1300" cy="-300" r="35" stroke="#00b9c8"> <animate attributeName="visibility" dur="21.25s" keyTimes="0.0;0.011627907;0.7790697674;0.7906976744;1.0" repeatCount="indefinite" values="visible;visible;visible;hidden;hidden"/> </circle>
</svg>