<?xml version="1.0" encoding="UTF-8"?>
        <svg xmlns="http://www.w3.org/2000/svg" xmlns:xlink="http://www.w3.org/1999/xlink"
             width="512" height="512" viewBox="0 -1900 1900 1900">
<defs>

        <rect id="obstacle" width="70" height="70" fill="#84A1AE" rx="15"/>
        <style>
        .line {stroke: #84A1AE; stroke-width: 10;}
        .agent {r: 35;}
        .target {fill: none; stroke-width: 10; r: 35;}
        </style>
        
</defs>

<line class="line" x1="-50.0" x2="-50.0" y1="0" y2="-1900" />
<line class="line" x1="50.0" x2="50.0" y1="0" y2="-1900" />
<line class="line" x1="150.0" x2="150.0" y1="0" y2="-1900" />
<line class="line" x1="250.0" x2="250.0" y1="0" y2="-1900" />
<line class="line" x1="350.0" x2="350.0" y1="0" y2="-1900" />
<line class="line" x1="450.0" x2="450.0" y1="0" y2="-1900" />
<line class="line" x1="550.0" x2="550.0" y1="0" y2="-1900" />
<line class="line" x1="650.0" x2="650.0" y1="0" y2="-1900" />
<line class="line" x1="750.0" x2="750.0" y1="0" y2="-1900" />
<line class="line" x1="850.0" x2="850.0" y1="0" y2="-1900" />
<line class="line" x1="950.0" x2="950.0" y1="0" y2="-1900" />
<line class="line" x1="1050.0" x2="1050.0" y1="0" y2="-1900" />
<line class="line" x1="1150.0" x2="1150.0" y1="0" y2="-1900" />
<line class="line" x1="1250.0" x2="1250.0" y1="0" y2="-1900" />
<line class="line" x1="1350.0" x2="1350.0" y1="0" y2="-1900" />
<line class="line" x1="1450.0" x2="1450.0" y1="0" y2="-1900" />
<line class="line" x1="1550.0" x2="1550.0" y1="0" y2="-1900" />
<line class="line" x1="1650.0" x2="1650.0" y1="0" y2="-1900" />
<line class="line" x1="1750.0" x2="1750.0" y1="0" y2="-1900" />
<line class="line" x1="1850.0" x2="1850.0" y1="0" y2="-1900" />
<line class="line" x1="0" x2="1900" y1="50.0" y2="50.0" />
<line class="line" x1="0" x2="1900" y1="-50.0" y2="-50.0" />
<line class="line" x1="0" x2="1900" y1="-150.0" y2="-150.0" />
<line class="line" x1="0" x2="1900" y1="-250.0" y2="-250.0" />
<line class="line" x1="0" x2="1900" y1="-350.0" y2="-350.0" />
<line class="line" x1="0" x2="1900" y1="-450.0" y2="-450.0" />
<line class="line" x1="0" x2="1900" y1="-550.0" y2="-550.0" />
<line class="line" x1="0" x2="1900" y1="-650.0" y2="-650.0" />
<line class="line" x1="0" x2="1900" y1="-750.0" y2="-750.0" />
<line class="line" x1="0" x2="1900" y1="-850.0" y2="-850.0" />
<line class="line" x1="0" x2="1900" y1="-950.0" y2="-950.0" />
<line class="line" x1="0" x2="1900" y1="-1050.0" y2="-1050.0" />
<line class="line" x1="0" x2="1900" y1="-1150.0" y2="-1150.0" />
<line class="line" x1="0" x2="1900" y1="-1250.0" y2="-1250.0" />
<line class="line" x1="0" x2="1900" y1="-1350.0" y2="-1350.0" />
<line class="line" x1="0" x2="1900" y1="-1450.0" y2="-1450.0" />
<line class="line" x1="0" x2="1900" y1="-1550.0" y2="-1550.0" />
<line class="line" x1="0" x2="1900" y1="-1650.0" y2="-1650.0" />
<line class="line" x1="0" x2="1900" y1="-1750.0" y2="-1750.0" />
<line class="line" x1="0" x2="1900" y1="-1850.0" y2="-1850.0" />
<use href="#obstacle" x="65" y="-135" />
<use href="#obstacle" x="65" y="-235" />
<use href="#obstacle" x="65" y="-335" />
<use href="#obstacle" x="65" y="-435" />
<use href="#obstacle" x="65" y="-535" />
<use href="#obstacle" x="65" y="-635" />
<use href="#obstacle" x="65" y="-735" />
<use href="#obstacle" x="65" y="-835" />
<use href="#obstacle" x="65" y="-935" />
<use href="#obstacle" x="65" y="-1035" />
<use href="#obstacle" x="65" y="-1135" />
<use href="#obstacle" x="65" y="-1235" />
<use href="#obstacle" x="65" y="-1335" />
<use href="#obstacle" x="65" y="-1435" />
<use href="#obstacle" x="65" y="-1535" />
<use href="#obstacle" x="65" y="-1635" />
<use href="#obstacle" x="65" y="-1735" />
<use href="#obstacle" x="65" y="-1835" />
<use href="#obstacle" x="165" y="-135" />
<use href="#obstacle" x="165" y="-235" />
<use href="#obstacle" x="165" y="-1735" />
<use href="#obstacle" x="165" y="-1835" />
<use href="#obstacle" x="265" y="-135" />
<use href="#obstacle" x="265" y="-235" />
<use href="#obstacle" x="265" y="-335" />
<use href="#obstacle" x="265" y="-535" />
<use href="#obstacle" x="265" y="-635" />
<use href="#obstacle" x="265" y="-735" />
<use href="#obstacle" x="265" y="-1835" />
<use href="#obstacle" x="365" y="-135" />
<use href="#obstacle" x="365" y="-635" />
<use href="#obstacle" x="365" y="-1235" />
<use href="#obstacle" x="365" y="-1635" />
<use href="#obstacle" x="365" y="-1735" />
<use href="#obstacle" x="365" y="-1835" />
<use href="#obstacle" x="465" y="-135" />
<use href="#obstacle" x="465" y="-635" />
<use href="#obstacle" x="465" y="-935" />
<use href="#obstacle" x="465" y="-1035" />
<use href="#obstacle" x="465" y="-1135" />
<use href="#obstacle" x="465" y="-1835" />
<use href="#obstacle" x="565" y="-135" />
<use href="#obstacle" x="565" y="-635" />
<use href="#obstacle" x="565" y="-1035" />
<use href="#obstacle" x="565" y="-1135" />
<use href="#obstacle" x="565" y="-1435" />
<use href="#obstacle" x="565" y="-1635" />
<use href="#obstacle" x="565" y="-1835" />
<use href="#obstacle" x="665" y="-135" />
<use href="#obstacle" x="665" y="-235" />
<use href="#obstacle" x="665" y="-435" />
<use href="#obstacle" x="665" y="-535" />
<use href="#obstacle" x="665" y="-635" />
<use href="#obstacle" x="665" y="-1035" />
<use href="#obstacle" x="665" y="-1735" />
<use href="#obstacle" x="665" y="-1835" />
<use href="#obstacle" x="765" y="-135" />
<use href="#obstacle" x="765" y="-435" />
<use href="#obstacle" x="765" y="-735" />
<use href="#obstacle" x="765" y="-835" />
<use href="#obstacle" x="765" y="-1235" />
<use href="#obstacle" x="765" y="-1435" />
<use href="#obstacle" x="765" y="-1635" />
<use href="#obstacle" x="765" y="-1735" />
<use href="#obstacle" x="765" y="-1835" />
<use href="#obstacle" x="865" y="-135" />
<use href="#obstacle" x="865" y="-435" />
<use href="#obstacle" x="865" y="-735" />
<use href="#obstacle" x="865" y="-835" />
<use href="#obstacle" x="865" y="-1135" />
<use href="#obstacle" x="865" y="-1435" />
<use href="#obstacle" x="865" y="-1635" />
<use href="#obstacle" x="865" y="-1735" />
<use href="#obstacle" x="865" y="-1835" />
<use href="#obstacle" x="965" y="-135" />
<use href="#obstacle" x="965" y="-335" />
<use href="#obstacle" x="965" y="-535" />
<use href="#obstacle" x="965" y="-635" />
<use href="#obstacle" x="965" y="-935" />
<use href="#obstacle" x="965" y="-1135" />
<use href="#obstacle" x="965" y="-1335" />
<use href="#obstacle" x="965" y="-1635" />
<use href="#obstacle" x="965" y="-1835" />
<use href="#obstacle" x="1065" y="-135" />
<use href="#obstacle" x="1065" y="-535" />
<use href="#obstacle" x="1065" y="-735" />
<use href="#obstacle" x="1065" y="-1135" />
<use href="#obstacle" x="1065" y="-1535" />
<use href="#obstacle" x="1065" y="-1835" />
<use href="#obstacle" x="1165" y="-135" />
<use href="#obstacle" x="1165" y="-335" />
<use href="#obstacle" x="1165" y="-435" />
<use href="#obstacle" x="1165" y="-935" />
<use href="#obstacle" x="1165" y="-1535" />
<use href="#obstacle" x="1165" y="-1835" />
<use href="#obstacle" x="1265" y="-135" />
<use href="#obstacle" x="1265" y="-235" />
<use href="#obstacle" x="1265" y="-335" />
<use href="#obstacle" x="1265" y="-1735" />
<use href="#obstacle" x="1265" y="-1835" />
<use href="#obstacle" x="1365" y="-135" />
<use href="#obstacle" x="1365" y="-635" />
<use href="#obstacle" x="1365" y="-1535" />
<use href="#obstacle" x="1365" y="-1835" />
<use href="#obstacle" x="1465" y="-135" />
<use href="#obstacle" x="1465" y="-335" />
<use href="#obstacle" x="1465" y="-735" />
<use href="#obstacle" x="1465" y="-1135" />
<use href="#obstacle" x="1465" y="-1535" />
<use href="#obstacle" x="1465" y="-1735" />
<use href="#obstacle" x="1465" y="-1835" />
<use href="#obstacle" x="1565" y="-135" />
<use href="#obstacle" x="1565" y="-635" />
<use href="#obstacle" x="1565" y="-835" />
<use href="#obstacle" x="1565" y="-935" />
<use href="#obstacle" x="1565" y="-1635" />
<use href="#obstacle" x="1565" y="-1835" />
<use href="#obstacle" x="1665" y="-135" />
<use href="#obstacle" x="1665" y="-235" />
<use href="#obstacle" x="1665" y="-435" />
<use href="#obstacle" x="1665" y="-835" />
<use href="#obstacle" x="1665" y="-1335" />
<use href="#obstacle" x="1665" y="-1435" />
<use href="#obstacle" x="1665" y="-1635" />
<use href="#obstacle" x="1665" y="-1835" />
<use href="#obstacle" x="1765" y="-135" />
<use href="#obstacle" x="1765" y="-235" />
<use href="#obstacle" x="1765" y="-335" />
<use href="#obstacle" x="1765" y="-435" />
<use href="#obstacle" x="1765" y="-535" />
<use href="#obstacle" x="1765" y="-635" />
<use href="#obstacle" x="1765" y="-735" />
<use href="#obstacle" x="1765" y="-835" />
<use href="#obstacle" x="1765" y="-935" />
<use href="#obstacle" x="1765" y="-1035" />
<use href="#obstacle" x="1765" y="-1135" />
<use href="#obstacle" x="1765" y="-1235" />
<use href="#obstacle" x="1765" y="-1335" />
<use href="#obstacle" x="1765" y="-1435" />
<use href="#obstacle" x="1765" y="-1535" />
<use href="#obstacle" x="1765" y="-1635" />
<use href="#obstacle" x="1765" y="-1735" />
<use href="#obstacle" x="1765" y="-1835" />
<circle class="agent" cx="500" cy="-200" fill="#c1433c" r="35"> <animate attributeName="cy" dur="32.25s" keyTimes="0.0;0.0076923077;0.0153846154;0.0307692308;0.0384615385;0.0615384615;0.0692307692;0.0769230769;0.0846153846;0.1076923077;0.1153846154;0.1230769231;0.1307692308;0.1384615385;0.2076923077;0.2153846154;0.2230769231;0.2615384615;0.2692307692;0.2769230769;0.2846153846;0.3;0.3076923077;0.3153846154;0.3230769231;0.3307692308;0.3384615385;0.4076923077;0.4153846154;0.4230769231;0.4307692308;0.4384615385;0.4461538462;0.4538461538;0.4615384615;0.5461538462;0.5538461538;0.5615384615;0.5692307692;0.5769230769;0.6;0.6076923077;0.6230769231;0.6307692308;0.6384615385;0.6461538462;0.7153846154;0.7230769231;0.8230769231;0.8307692308;0.8461538462;0.8538461538;1.0" repeatCount="indefinite" values="-200;-200;-300;-300;-400;-400;-300;-400;-300;-300;-400;-300;-300;-200;-200;-300;-400;-400;-500;-500;-400;-400;-500;-500;-400;-400;-500;-500;-400;-400;-300;-300;-200;-200;-300;-300;-200;-200;-300;-200;-200;-300;-300;-200;-200;-300;-300;-200;-200;-300;-300;-200;-200"/>
<animate attributeName="cx" dur="32.25s" keyTimes="0.0;0.0076923077;0.0153846154;0.0230769231;0.0461538462;0.0538461538;0.0615384615;0.0846153846;0.0923076923;0.1;0.1076923077;0.1230769231;0.1307692308;0.1846153846;0.1923076923;0.2461538462;0.2538461538;0.2615384615;0.2923076923;0.3;0.3538461538;0.3615384615;0.3692307692;0.4307692308;0.4384615385;0.4461538462;0.4538461538;0.4615384615;0.4692307692;0.4769230769;0.4846153846;0.5;0.5076923077;0.5153846154;0.5230769231;0.5384615385;0.5461538462;0.5769230769;0.5846153846;0.6153846154;0.6230769231;0.6615384615;0.6692307692;0.6769230769;0.6846153846;0.7307692308;0.7384615385;0.7461538462;0.7538461538;0.7615384615;0.8076923077;0.8153846154;0.8538461538;0.8615384615;0.8692307692;0.8769230769;0.8923076923;0.9;0.9153846154;0.9230769231;0.9307692308;0.9384615385;0.9692307692;0.9769230769;0.9846153846;1.0" repeatCount="indefinite" values="500;500;500;600;600;500;600;600;500;600;500;500;400;400;500;500;600;500;500;600;600;500;400;400;500;500;400;400;500;600;700;700;600;600;700;700;800;800;900;900;800;800;900;800;900;900;1000;1000;900;800;800;900;900;800;900;1000;1000;1100;1100;1000;900;800;800;900;1000;1000"/>
<animate attributeName="visibility" dur="32.25s" keyTimes="0.0;0.0076923077;1.0" repeatCount="indefinite" values="visible;visible;visible"/> </circle>
<circle class="agent" cx="1600" cy="-1700" fill="#2e6f9e" r="35"> <animate attributeName="cy" dur="32.25s" keyTimes="0.0;0.0076923077;1.0" repeatCount="indefinite" values="-1700;-1700;-1700"/>
<animate attributeName="cx" dur="32.25s" keyTimes="0.0;0.0076923077;0.0461538462;0.0538461538;1.0" repeatCount="indefinite" values="1600;1600;1600;1700;1700"/>
<animate attributeName="visibility" dur="32.25s" keyTimes="0.0;0.0076923077;0.0461538462;0.0538461538;1.0" repeatCount="indefinite" values="visible;visible;visible;hidden;hidden"/> </circle>
<circle class="agent" cx="1500" cy="-1300" fill="#6e81af" r="35"> <animate attributeName="cy" dur="32.25s" keyTimes="0.0;0.0076923077;0.0153846154;0.0230769231;0.0692307692;0.0769230769;0.1076923077;0.1153846154;0.1230769231;0.1307692308;0.1384615385;0.1538461538;0.1615384615;0.1692307692;0.1769230769;0.2076923077;0.2153846154;0.2230769231;0.2307692308;0.2461538462;0.2538461538;0.2769230769;0.2846153846;0.3;0.3076923077;0.3230769231;0.3307692308;0.4230769231;0.4307692308;0.4384615385;0.4615384615;0.4692307692;0.4769230769;0.4846153846;0.4923076923;0.5;0.5153846154;0.5230769231;0.5307692308;0.5384615385;0.5461538462;0.5769230769;0.5846153846;0.6076923077;0.6153846154;0.6230769231;0.6307692308;0.6384615385;0.6461538462;0.6538461538;0.6615384615;0.6692307692;0.6769230769;0.7692307692;0.7769230769;0.8076923077;0.8153846154;0.8461538462;0.8538461538;0.8615384615;0.8692307692;0.9;0.9076923077;0.9461538462;0.9538461538;0.9615384615;0.9692307692;0.9769230769;0.9846153846;0.9923076923;1.0" repeatCount="indefinite" values="-1300;-1300;-1300;-1200;-1200;-1300;-1300;-1400;-1300;-1300;-1200;-1200;-1300;-1200;-1100;-1100;-1000;-1100;-1200;-1200;-1300;-1300;-1200;-1200;-1300;-1300;-1200;-1200;-1300;-1400;-1400;-1300;-1200;-1200;-1100;-1000;-1000;-900;-1000;-1000;-1100;-1100;-1000;-1000;-1100;-1200;-1200;-1300;-1300;-1200;-1200;-1300;-1400;-1400;-1300;-1300;-1400;-1400;-1300;-1300;-1200;-1200;-1100;-1100;-1200;-1200;-1100;-1000;-1000;-900;-900"/>
<animate attributeName="cx" dur="32.25s" keyTimes="0.0;0.0076923077;0.0538461538;0.0615384615;0.0769230769;0.0846153846;0.1;0.1076923077;0.1384615385;0.1461538462;0.1538461538;0.2;0.2076923077;0.2307692308;0.2384615385;0.3076923077;0.3153846154;0.3230769231;0.3307692308;0.3384615385;0.3461538462;0.3538461538;0.3769230769;0.3846153846;0.4076923077;0.4153846154;0.4230769231;0.4384615385;0.4461538462;0.5;0.5076923077;0.5153846154;0.5923076923;0.6;0.6230769231;0.6307692308;0.6384615385;0.6461538462;0.6923076923;0.7;0.7307692308;0.7384615385;0.7461538462;0.7846153846;0.7923076923;0.8153846154;0.8230769231;0.8307692308;0.8384615385;0.8461538462;0.8538461538;0.8615384615;0.8692307692;0.8769230769;0.8846153846;0.8923076923;0.9076923077;0.9153846154;0.9230769231;0.9384615385;0.9461538462;0.9538461538;0.9615384615;1.0" repeatCount="indefinite" values="1500;1500;1500;1600;1600;1500;1500;1400;1400;1500;1400;1400;1300;1300;1400;1400;1300;1200;1200;1100;1100;1000;1000;900;900;1000;1100;1100;1200;1200;1300;1400;1400;1300;1300;1200;1200;1100;1100;1200;1200;1300;1200;1200;1300;1300;1200;1200;1100;1200;1200;1300;1300;1200;1300;1200;1200;1300;1400;1400;1300;1300;1400;1400"/>
<animate attributeName="visibility" dur="32.25s" keyTimes="0.0;0.0076923077;1.0" repeatCount="indefinite" values="visible;visible;visible"/> </circle>
<circle class="agent" cx="900" cy="-1500" fill="#00b9c8" r="35"> <animate attributeName="cy" dur="32.25s" keyTimes="0.0;0.0076923077;0.0153846154;0.0230769231;0.0307692308;0.0384615385;0.0692307692;0.0769230769;1.0" repeatCount="indefinite" values="-1500;-1500;-1500;-1400;-1400;-1300;-1300;-1200;-1200"/>
<animate attributeName="cx" dur="32.25s" keyTimes="0.0;0.0076923077;0.0153846154;0.0230769231;0.0307692308;0.0461538462;0.0538461538;0.0615384615;0.0769230769;0.0846153846;1.0" repeatCount="indefinite" values="900;900;1000;1000;1100;1100;1200;1300;1300;1400;1400"/>
<animate attributeName="visibility" dur="32.25s" keyTimes="0.0;0.0076923077;0.0769230769;0.0846153846;1.0" repeatCount="indefinite" values="visible;visible;visible;hidden;hidden"/> </circle>
<circle class="target" cx="200" cy="-1200" r="35" stroke="#c1433c"> <animate attributeName="visibility" dur="32.25s" keyTimes="0.0;0.0076923077;1.0" repeatCount="indefinite" values="visible;visible;visible"/> </circle>
<circle class="target" cx="1700" cy="-1700" r="35" stroke="#2e6f9e"> <animate attributeName="visibility" dur="32.25s" keyTimes="0.0;0.0076923077;0.0461538462;0.0538461538;1.0" repeatCount="indefinite" values="visible;visible;visible;hidden;hidden"/> </circle>
<circle class="target" cx="1600" cy="-200" r="35" stroke="#6e81af"> <animate attributeName="visibility" dur="32.25s" keyTimes="0.0;0.0076923077;1.0" repeatCount="indefinite" values="visible;visible;visible"/> </circle>
<circle class="target" cx="1400" cy="-1200" r="35" stroke="#00b9c8"> <animate attributeName="visibility" dur="32.25s" keyTimes="0.0;0.0076923077;0.0769230769;0.0846153846;1.0" repeatCount="indefinite" values="visible;visible;visible;hidden;hidden"/> </circle>
</svg>