<svg xmlns="http://www.w3.org/2000/svg" width="960" height="620" viewBox="0 0 960 620">
<style>
  .title { font: 700 18px Arial, sans-serif; fill: #111827; }
  .cell { stroke: #d1d5db; stroke-width: 1; }
  .free { fill: #f8fafc; }
  .shelf { fill: #334155; }
  .pickup { fill: #fde68a; stroke: #92400e; stroke-width: 1.5; }
  .dropoff { fill: #bbf7d0; stroke: #166534; stroke-width: 1.5; }
  .start { fill: #bfdbfe; stroke: #1d4ed8; stroke-width: 1.5; }
  .label { font: 700 9px Arial, sans-serif; fill: #111827; text-anchor: middle; dominant-baseline: central; }
  .small { font: 12px Arial, sans-serif; fill: #374151; }
  .legend-title { font: 700 14px Arial, sans-serif; fill: #111827; }
  .route { fill: none; stroke-width: 4; stroke-linecap: round; stroke-linejoin: round; opacity: 0.74; }
</style>
<text x="28" y="24" class="title">Warehouse AGV Route Map</text>
<rect x="28" y="28" width="34" height="34" class="cell free" />
<rect x="62" y="28" width="34" height="34" class="cell free" />
<rect x="96" y="28" width="34" height="34" class="cell free" />
<rect x="130" y="28" width="34" height="34" class="cell free" />
<rect x="164" y="28" width="34" height="34" class="cell free" />
<rect x="198" y="28" width="34" height="34" class="cell free" />
<rect x="232" y="28" width="34" height="34" class="cell free" />
<rect x="266" y="28" width="34" height="34" class="cell free" />
<rect x="300" y="28" width="34" height="34" class="cell free" />
<rect x="334" y="28" width="34" height="34" class="cell free" />
<rect x="368" y="28" width="34" height="34" class="cell free" />
<rect x="402" y="28" width="34" height="34" class="cell free" />
<rect x="436" y="28" width="34" height="34" class="cell free" />
<rect x="470" y="28" width="34" height="34" class="cell free" />
<rect x="504" y="28" width="34" height="34" class="cell free" />
<rect x="538" y="28" width="34" height="34" class="cell free" />
<rect x="28" y="62" width="34" height="34" class="cell free" />
<rect x="62" y="62" width="34" height="34" class="cell free" />
<rect x="96" y="62" width="34" height="34" class="cell free" />
<rect x="130" y="62" width="34" height="34" class="cell free" />
<rect x="164" y="62" width="34" height="34" class="cell free" />
<rect x="198" y="62" width="34" height="34" class="cell free" />
<rect x="232" y="62" width="34" height="34" class="cell free" />
<rect x="266" y="62" width="34" height="34" class="cell free" />
<rect x="300" y="62" width="34" height="34" class="cell free" />
<rect x="334" y="62" width="34" height="34" class="cell free" />
<rect x="368" y="62" width="34" height="34" class="cell free" />
<rect x="402" y="62" width="34" height="34" class="cell free" />
<rect x="436" y="62" width="34" height="34" class="cell free" />
<rect x="470" y="62" width="34" height="34" class="cell free" />
<rect x="504" y="62" width="34" height="34" class="cell free" />
<rect x="538" y="62" width="34" height="34" class="cell free" />
<rect x="28" y="96" width="34" height="34" class="cell free" />
<rect x="62" y="96" width="34" height="34" class="cell free" />
<rect x="96" y="96" width="34" height="34" class="cell free" />
<rect x="130" y="96" width="34" height="34" class="cell shelf" />
<rect x="164" y="96" width="34" height="34" class="cell shelf" />
<rect x="198" y="96" width="34" height="34" class="cell free" />
<rect x="232" y="96" width="34" height="34" class="cell shelf" />
<rect x="266" y="96" width="34" height="34" class="cell shelf" />
<rect x="300" y="96" width="34" height="34" class="cell free" />
<rect x="334" y="96" width="34" height="34" class="cell free" />
<rect x="368" y="96" width="34" height="34" class="cell shelf" />
<rect x="402" y="96" width="34" height="34" class="cell shelf" />
<rect x="436" y="96" width="34" height="34" class="cell free" />
<rect x="470" y="96" width="34" height="34" class="cell shelf" />
<rect x="504" y="96" width="34" height="34" class="cell shelf" />
<rect x="538" y="96" width="34" height="34" class="cell free" />
<rect x="28" y="130" width="34" height="34" class="cell free" />
<rect x="62" y="130" width="34" height="34" class="cell free" />
<rect x="96" y="130" width="34" height="34" class="cell free" />
<rect x="130" y="130" width="34" height="34" class="cell shelf" />
<rect x="164" y="130" width="34" height="34" class="cell shelf" />
<rect x="198" y="130" width="34" height="34" class="cell free" />
<rect x="232" y="130" width="34" height="34" class="cell shelf" />
<rect x="266" y="130" width="34" height="34" class="cell shelf" />
<rect x="300" y="130" width="34" height="34" class="cell free" />
<rect x="334" y="130" width="34" height="34" class="cell free" />
<rect x="368" y="130" width="34" height="34" class="cell shelf" />
<rect x="402" y="130" width="34" height="34" class="cell shelf" />
<rect x="436" y="130" width="34" height="34" class="cell free" />
<rect x="470" y="130" width="34" height="34" class="cell shelf" />
<rect x="504" y="130" width="34" height="34" class="cell shelf" />
<rect x="538" y="130" width="34" height="34" class="cell free" />
<rect x="28" y="164" width="34" height="34" class="cell free" />
<rect x="62" y="164" width="34" height="34" class="cell free" />
<rect x="96" y="164" width="34" height="34" class="cell free" />
<rect x="130" y="164" width="34" height="34" class="cell shelf" />
<rect x="164" y="164" width="34" height="34" class="cell shelf" />
<rect x="198" y="164" width="34" height="34" class="cell free" />
<rect x="232" y="164" width="34" height="34" class="cell shelf" />
<rect x="266" y="164" width="34" height="34" class="cell shelf" />
<rect x="300" y="164" width="34" height="34" class="cell free" />
<rect x="334" y="164" width="34" height="34" class="cell free" />
<rect x="368" y="164" width="34" height="34" class="cell shelf" />
<rect x="402" y="164" width="34" height="34" class="cell shelf" />
<rect x="436" y="164" width="34" height="34" class="cell free" />
<rect x="470" y="164" width="34" height="34" class="cell shelf" />
<rect x="504" y="164" width="34" height="34" class="cell shelf" />
<rect x="538" y="164" width="34" height="34" class="cell free" />
<rect x="28" y="198" width="34" height="34" class="cell free" />
<rect x="62" y="198" width="34" height="34" class="cell free" />
<rect x="96" y="198" width="34" height="34" class="cell free" />
<rect x="130" y="198" width="34" height="34" class="cell shelf" />
<rect x="164" y="198" width="34" height="34" class="cell shelf" />
<rect x="198" y="198" width="34" height="34" class="cell free" />
<rect x="232" y="198" width="34" height="34" class="cell shelf" />
<rect x="266" y="198" width="34" height="34" class="cell shelf" />
<rect x="300" y="198" width="34" height="34" class="cell free" />
<rect x="334" y="198" width="34" height="34" class="cell free" />
<rect x="368" y="198" width="34" height="34" class="cell shelf" />
<rect x="402" y="198" width="34" height="34" class="cell shelf" />
<rect x="436" y="198" width="34" height="34" class="cell free" />
<rect x="470" y="198" width="34" height="34" class="cell shelf" />
<rect x="504" y="198" width="34" height="34" class="cell shelf" />
<rect x="538" y="198" width="34" height="34" class="cell free" />
<rect x="28" y="232" width="34" height="34" class="cell free" />
<rect x="62" y="232" width="34" height="34" class="cell free" />
<rect x="96" y="232" width="34" height="34" class="cell free" />
<rect x="130" y="232" width="34" height="34" class="cell free" />
<rect x="164" y="232" width="34" height="34" class="cell free" />
<rect x="198" y="232" width="34" height="34" class="cell free" />
<rect x="232" y="232" width="34" height="34" class="cell free" />
<rect x="266" y="232" width="34" height="34" class="cell free" />
<rect x="300" y="232" width="34" height="34" class="cell free" />
<rect x="334" y="232" width="34" height="34" class="cell free" />
<rect x="368" y="232" width="34" height="34" class="cell free" />
<rect x="402" y="232" width="34" height="34" class="cell free" />
<rect x="436" y="232" width="34" height="34" class="cell free" />
<rect x="470" y="232" width="34" height="34" class="cell free" />
<rect x="504" y="232" width="34" height="34" class="cell free" />
<rect x="538" y="232" width="34" height="34" class="cell free" />
<rect x="28" y="266" width="34" height="34" class="cell free" />
<rect x="62" y="266" width="34" height="34" class="cell free" />
<rect x="96" y="266" width="34" height="34" class="cell free" />
<rect x="130" y="266" width="34" height="34" class="cell free" />
<rect x="164" y="266" width="34" height="34" class="cell free" />
<rect x="198" y="266" width="34" height="34" class="cell free" />
<rect x="232" y="266" width="34" height="34" class="cell free" />
<rect x="266" y="266" width="34" height="34" class="cell free" />
<rect x="300" y="266" width="34" height="34" class="cell free" />
<rect x="334" y="266" width="34" height="34" class="cell free" />
<rect x="368" y="266" width="34" height="34" class="cell free" />
<rect x="402" y="266" width="34" height="34" class="cell free" />
<rect x="436" y="266" width="34" height="34" class="cell free" />
<rect x="470" y="266" width="34" height="34" class="cell free" />
<rect x="504" y="266" width="34" height="34" class="cell free" />
<rect x="538" y="266" width="34" height="34" class="cell free" />
<rect x="28" y="300" width="34" height="34" class="cell free" />
<rect x="62" y="300" width="34" height="34" class="cell free" />
<rect x="96" y="300" width="34" height="34" class="cell free" />
<rect x="130" y="300" width="34" height="34" class="cell shelf" />
<rect x="164" y="300" width="34" height="34" class="cell shelf" />
<rect x="198" y="300" width="34" height="34" class="cell free" />
<rect x="232" y="300" width="34" height="34" class="cell shelf" />
<rect x="266" y="300" width="34" height="34" class="cell shelf" />
<rect x="300" y="300" width="34" height="34" class="cell free" />
<rect x="334" y="300" width="34" height="34" class="cell free" />
<rect x="368" y="300" width="34" height="34" class="cell shelf" />
<rect x="402" y="300" width="34" height="34" class="cell shelf" />
<rect x="436" y="300" width="34" height="34" class="cell free" />
<rect x="470" y="300" width="34" height="34" class="cell shelf" />
<rect x="504" y="300" width="34" height="34" class="cell shelf" />
<rect x="538" y="300" width="34" height="34" class="cell free" />
<rect x="28" y="334" width="34" height="34" class="cell free" />
<rect x="62" y="334" width="34" height="34" class="cell free" />
<rect x="96" y="334" width="34" height="34" class="cell free" />
<rect x="130" y="334" width="34" height="34" class="cell shelf" />
<rect x="164" y="334" width="34" height="34" class="cell shelf" />
<rect x="198" y="334" width="34" height="34" class="cell free" />
<rect x="232" y="334" width="34" height="34" class="cell shelf" />
<rect x="266" y="334" width="34" height="34" class="cell shelf" />
<rect x="300" y="334" width="34" height="34" class="cell free" />
<rect x="334" y="334" width="34" height="34" class="cell free" />
<rect x="368" y="334" width="34" height="34" class="cell shelf" />
<rect x="402" y="334" width="34" height="34" class="cell shelf" />
<rect x="436" y="334" width="34" height="34" class="cell free" />
<rect x="470" y="334" width="34" height="34" class="cell shelf" />
<rect x="504" y="334" width="34" height="34" class="cell shelf" />
<rect x="538" y="334" width="34" height="34" class="cell free" />
<rect x="28" y="368" width="34" height="34" class="cell free" />
<rect x="62" y="368" width="34" height="34" class="cell free" />
<rect x="96" y="368" width="34" height="34" class="cell free" />
<rect x="130" y="368" width="34" height="34" class="cell shelf" />
<rect x="164" y="368" width="34" height="34" class="cell shelf" />
<rect x="198" y="368" width="34" height="34" class="cell free" />
<rect x="232" y="368" width="34" height="34" class="cell shelf" />
<rect x="266" y="368" width="34" height="34" class="cell shelf" />
<rect x="300" y="368" width="34" height="34" class="cell free" />
<rect x="334" y="368" width="34" height="34" class="cell free" />
<rect x="368" y="368" width="34" height="34" class="cell shelf" />
<rect x="402" y="368" width="34" height="34" class="cell shelf" />
<rect x="436" y="368" width="34" height="34" class="cell free" />
<rect x="470" y="368" width="34" height="34" class="cell shelf" />
<rect x="504" y="368" width="34" height="34" class="cell shelf" />
<rect x="538" y="368" width="34" height="34" class="cell free" />
<rect x="28" y="402" width="34" height="34" class="cell free" />
<rect x="62" y="402" width="34" height="34" class="cell free" />
<rect x="96" y="402" width="34" height="34" class="cell free" />
<rect x="130" y="402" width="34" height="34" class="cell shelf" />
<rect x="164" y="402" width="34" height="34" class="cell shelf" />
<rect x="198" y="402" width="34" height="34" class="cell free" />
<rect x="232" y="402" width="34" height="34" class="cell shelf" />
<rect x="266" y="402" width="34" height="34" class="cell shelf" />
<rect x="300" y="402" width="34" height="34" class="cell free" />
<rect x="334" y="402" width="34" height="34" class="cell free" />
<rect x="368" y="402" width="34" height="34" class="cell shelf" />
<rect x="402" y="402" width="34" height="34" class="cell shelf" />
<rect x="436" y="402" width="34" height="34" class="cell free" />
<rect x="470" y="402" width="34" height="34" class="cell shelf" />
<rect x="504" y="402" width="34" height="34" class="cell shelf" />
<rect x="538" y="402" width="34" height="34" class="cell free" />
<rect x="28" y="436" width="34" height="34" class="cell free" />
<rect x="62" y="436" width="34" height="34" class="cell free" />
<rect x="96" y="436" width="34" height="34" class="cell free" />
<rect x="130" y="436" width="34" height="34" class="cell free" />
<rect x="164" y="436" width="34" height="34" class="cell free" />
<rect x="198" y="436" width="34" height="34" class="cell free" />
<rect x="232" y="436" width="34" height="34" class="cell free" />
<rect x="266" y="436" width="34" height="34" class="cell free" />
<rect x="300" y="436" width="34" height="34" class="cell free" />
<rect x="334" y="436" width="34" height="34" class="cell free" />
<rect x="368" y="436" width="34" height="34" class="cell free" />
<rect x="402" y="436" width="34" height="34" class="cell free" />
<rect x="436" y="436" width="34" height="34" class="cell free" />
<rect x="470" y="436" width="34" height="34" class="cell free" />
<rect x="504" y="436" width="34" height="34" class="cell free" />
<rect x="538" y="436" width="34" height="34" class="cell free" />
<rect x="28" y="470" width="34" height="34" class="cell free" />
<rect x="62" y="470" width="34" height="34" class="cell free" />
<rect x="96" y="470" width="34" height="34" class="cell free" />
<rect x="130" y="470" width="34" height="34" class="cell free" />
<rect x="164" y="470" width="34" height="34" class="cell free" />
<rect x="198" y="470" width="34" height="34" class="cell free" />
<rect x="232" y="470" width="34" height="34" class="cell free" />
<rect x="266" y="470" width="34" height="34" class="cell free" />
<rect x="300" y="470" width="34" height="34" class="cell free" />
<rect x="334" y="470" width="34" height="34" class="cell free" />
<rect x="368" y="470" width="34" height="34" class="cell free" />
<rect x="402" y="470" width="34" height="34" class="cell free" />
<rect x="436" y="470" width="34" height="34" class="cell free" />
<rect x="470" y="470" width="34" height="34" class="cell free" />
<rect x="504" y="470" width="34" height="34" class="cell free" />
<rect x="538" y="470" width="34" height="34" class="cell free" />
<rect x="28" y="504" width="34" height="34" class="cell free" />
<rect x="62" y="504" width="34" height="34" class="cell free" />
<rect x="96" y="504" width="34" height="34" class="cell free" />
<rect x="130" y="504" width="34" height="34" class="cell free" />
<rect x="164" y="504" width="34" height="34" class="cell free" />
<rect x="198" y="504" width="34" height="34" class="cell free" />
<rect x="232" y="504" width="34" height="34" class="cell free" />
<rect x="266" y="504" width="34" height="34" class="cell free" />
<rect x="300" y="504" width="34" height="34" class="cell free" />
<rect x="334" y="504" width="34" height="34" class="cell free" />
<rect x="368" y="504" width="34" height="34" class="cell free" />
<rect x="402" y="504" width="34" height="34" class="cell free" />
<rect x="436" y="504" width="34" height="34" class="cell free" />
<rect x="470" y="504" width="34" height="34" class="cell free" />
<rect x="504" y="504" width="34" height="34" class="cell free" />
<rect x="538" y="504" width="34" height="34" class="cell free" />
<rect x="28" y="538" width="34" height="34" class="cell free" />
<rect x="62" y="538" width="34" height="34" class="cell free" />
<rect x="96" y="538" width="34" height="34" class="cell free" />
<rect x="130" y="538" width="34" height="34" class="cell free" />
<rect x="164" y="538" width="34" height="34" class="cell free" />
<rect x="198" y="538" width="34" height="34" class="cell free" />
<rect x="232" y="538" width="34" height="34" class="cell free" />
<rect x="266" y="538" width="34" height="34" class="cell free" />
<rect x="300" y="538" width="34" height="34" class="cell shelf" />
<rect x="334" y="538" width="34" height="34" class="cell free" />
<rect x="368" y="538" width="34" height="34" class="cell free" />
<rect x="402" y="538" width="34" height="34" class="cell shelf" />
<rect x="436" y="538" width="34" height="34" class="cell free" />
<rect x="470" y="538" width="34" height="34" class="cell free" />
<rect x="504" y="538" width="34" height="34" class="cell shelf" />
<rect x="538" y="538" width="34" height="34" class="cell free" />
<rect x="303" y="541" width="28" height="28" rx="3" fill="#64748b" stroke="#0f172a" stroke-width="2"><title>station INBOUND</title></rect>
<text x="317.0" y="555.0" class="label">INBOUND</text>
<rect x="507" y="541" width="28" height="28" rx="3" fill="#64748b" stroke="#0f172a" stroke-width="2"><title>station OUTBOUND</title></rect>
<text x="521.0" y="555.0" class="label">OUTBOUND</text>
<rect x="405" y="541" width="28" height="28" rx="3" fill="#64748b" stroke="#0f172a" stroke-width="2"><title>station PACKING</title></rect>
<text x="419.0" y="555.0" class="label">PACKING</text>
<rect x="138" y="104" width="18" height="18" rx="4" fill="#f97316" stroke="#7c2d12" stroke-width="2"><title>cargo shelf S1</title></rect>
<text x="147.0" y="113.0" class="label">S1</text>
<rect x="172" y="206" width="18" height="18" rx="4" fill="#f97316" stroke="#7c2d12" stroke-width="2"><title>cargo shelf S10</title></rect>
<text x="181.0" y="215.0" class="label">S10</text>
<rect x="240" y="206" width="18" height="18" rx="4" fill="#f97316" stroke="#7c2d12" stroke-width="2"><title>cargo shelf S11</title></rect>
<text x="249.0" y="215.0" class="label">S11</text>
<rect x="274" y="206" width="18" height="18" rx="4" fill="#f97316" stroke="#7c2d12" stroke-width="2"><title>cargo shelf S12</title></rect>
<text x="283.0" y="215.0" class="label">S12</text>
<rect x="376" y="206" width="18" height="18" rx="4" fill="#f97316" stroke="#7c2d12" stroke-width="2"><title>cargo shelf S13</title></rect>
<text x="385.0" y="215.0" class="label">S13</text>
<rect x="410" y="206" width="18" height="18" rx="4" fill="#f97316" stroke="#7c2d12" stroke-width="2"><title>cargo shelf S14</title></rect>
<text x="419.0" y="215.0" class="label">S14</text>
<rect x="478" y="206" width="18" height="18" rx="4" fill="#f97316" stroke="#7c2d12" stroke-width="2"><title>cargo shelf S15</title></rect>
<text x="487.0" y="215.0" class="label">S15</text>
<rect x="512" y="206" width="18" height="18" rx="4" fill="#f97316" stroke="#7c2d12" stroke-width="2"><title>cargo shelf S16</title></rect>
<text x="521.0" y="215.0" class="label">S16</text>
<rect x="138" y="308" width="18" height="18" rx="4" fill="#f97316" stroke="#7c2d12" stroke-width="2"><title>cargo shelf S17</title></rect>
<text x="147.0" y="317.0" class="label">S17</text>
<rect x="240" y="308" width="18" height="18" rx="4" fill="#f97316" stroke="#7c2d12" stroke-width="2"><title>cargo shelf S18</title></rect>
<text x="249.0" y="317.0" class="label">S18</text>
<rect x="376" y="308" width="18" height="18" rx="4" fill="#f97316" stroke="#7c2d12" stroke-width="2"><title>cargo shelf S19</title></rect>
<text x="385.0" y="317.0" class="label">S19</text>
<rect x="172" y="104" width="18" height="18" rx="4" fill="#f97316" stroke="#7c2d12" stroke-width="2"><title>cargo shelf S2</title></rect>
<text x="181.0" y="113.0" class="label">S2</text>
<rect x="478" y="308" width="18" height="18" rx="4" fill="#f97316" stroke="#7c2d12" stroke-width="2"><title>cargo shelf S20</title></rect>
<text x="487.0" y="317.0" class="label">S20</text>
<rect x="172" y="410" width="18" height="18" rx="4" fill="#f97316" stroke="#7c2d12" stroke-width="2"><title>cargo shelf S21</title></rect>
<text x="181.0" y="419.0" class="label">S21</text>
<rect x="274" y="410" width="18" height="18" rx="4" fill="#f97316" stroke="#7c2d12" stroke-width="2"><title>cargo shelf S22</title></rect>
<text x="283.0" y="419.0" class="label">S22</text>
<rect x="410" y="410" width="18" height="18" rx="4" fill="#f97316" stroke="#7c2d12" stroke-width="2"><title>cargo shelf S23</title></rect>
<text x="419.0" y="419.0" class="label">S23</text>
<rect x="512" y="410" width="18" height="18" rx="4" fill="#f97316" stroke="#7c2d12" stroke-width="2"><title>cargo shelf S24</title></rect>
<text x="521.0" y="419.0" class="label">S24</text>
<rect x="240" y="104" width="18" height="18" rx="4" fill="#f97316" stroke="#7c2d12" stroke-width="2"><title>cargo shelf S3</title></rect>
<text x="249.0" y="113.0" class="label">S3</text>
<rect x="274" y="104" width="18" height="18" rx="4" fill="#f97316" stroke="#7c2d12" stroke-width="2"><title>cargo shelf S4</title></rect>
<text x="283.0" y="113.0" class="label">S4</text>
<rect x="376" y="104" width="18" height="18" rx="4" fill="#f97316" stroke="#7c2d12" stroke-width="2"><title>cargo shelf S5</title></rect>
<text x="385.0" y="113.0" class="label">S5</text>
<rect x="410" y="104" width="18" height="18" rx="4" fill="#f97316" stroke="#7c2d12" stroke-width="2"><title>cargo shelf S6</title></rect>
<text x="419.0" y="113.0" class="label">S6</text>
<rect x="478" y="104" width="18" height="18" rx="4" fill="#f97316" stroke="#7c2d12" stroke-width="2"><title>cargo shelf S7</title></rect>
<text x="487.0" y="113.0" class="label">S7</text>
<rect x="512" y="104" width="18" height="18" rx="4" fill="#f97316" stroke="#7c2d12" stroke-width="2"><title>cargo shelf S8</title></rect>
<text x="521.0" y="113.0" class="label">S8</text>
<rect x="138" y="206" width="18" height="18" rx="4" fill="#f97316" stroke="#7c2d12" stroke-width="2"><title>cargo shelf S9</title></rect>
<text x="147.0" y="215.0" class="label">S9</text>
<rect x="134" y="66" width="26" height="26" rx="4" class="pickup" />
<text x="147.0" y="79.0" class="label">S1</text>
<rect x="168" y="236" width="26" height="26" rx="4" class="pickup" />
<text x="181.0" y="249.0" class="label">S10</text>
<rect x="236" y="236" width="26" height="26" rx="4" class="pickup" />
<text x="249.0" y="249.0" class="label">S11</text>
<rect x="270" y="236" width="26" height="26" rx="4" class="pickup" />
<text x="283.0" y="249.0" class="label">S12</text>
<rect x="372" y="236" width="26" height="26" rx="4" class="pickup" />
<text x="385.0" y="249.0" class="label">S13</text>
<rect x="406" y="236" width="26" height="26" rx="4" class="pickup" />
<text x="419.0" y="249.0" class="label">S14</text>
<rect x="474" y="236" width="26" height="26" rx="4" class="pickup" />
<text x="487.0" y="249.0" class="label">S15</text>
<rect x="508" y="236" width="26" height="26" rx="4" class="pickup" />
<text x="521.0" y="249.0" class="label">S16</text>
<rect x="134" y="270" width="26" height="26" rx="4" class="pickup" />
<text x="147.0" y="283.0" class="label">S17</text>
<rect x="236" y="270" width="26" height="26" rx="4" class="pickup" />
<text x="249.0" y="283.0" class="label">S18</text>
<rect x="372" y="270" width="26" height="26" rx="4" class="pickup" />
<text x="385.0" y="283.0" class="label">S19</text>
<rect x="168" y="66" width="26" height="26" rx="4" class="pickup" />
<text x="181.0" y="79.0" class="label">S2</text>
<rect x="474" y="270" width="26" height="26" rx="4" class="pickup" />
<text x="487.0" y="283.0" class="label">S20</text>
<rect x="168" y="440" width="26" height="26" rx="4" class="pickup" />
<text x="181.0" y="453.0" class="label">S21</text>
<rect x="270" y="440" width="26" height="26" rx="4" class="pickup" />
<text x="283.0" y="453.0" class="label">S22</text>
<rect x="406" y="440" width="26" height="26" rx="4" class="pickup" />
<text x="419.0" y="453.0" class="label">S23</text>
<rect x="508" y="440" width="26" height="26" rx="4" class="pickup" />
<text x="521.0" y="453.0" class="label">S24</text>
<rect x="236" y="66" width="26" height="26" rx="4" class="pickup" />
<text x="249.0" y="79.0" class="label">S3</text>
<rect x="270" y="66" width="26" height="26" rx="4" class="pickup" />
<text x="283.0" y="79.0" class="label">S4</text>
<rect x="372" y="66" width="26" height="26" rx="4" class="pickup" />
<text x="385.0" y="79.0" class="label">S5</text>
<rect x="406" y="66" width="26" height="26" rx="4" class="pickup" />
<text x="419.0" y="79.0" class="label">S6</text>
<rect x="474" y="66" width="26" height="26" rx="4" class="pickup" />
<text x="487.0" y="79.0" class="label">S7</text>
<rect x="508" y="66" width="26" height="26" rx="4" class="pickup" />
<text x="521.0" y="79.0" class="label">S8</text>
<rect x="134" y="236" width="26" height="26" rx="4" class="pickup" />
<text x="147.0" y="249.0" class="label">S9</text>
<rect x="304" y="508" width="26" height="26" rx="4" class="dropoff" />
<text x="317.0" y="521.0" class="label">INBOUND</text>
<rect x="508" y="508" width="26" height="26" rx="4" class="dropoff" />
<text x="521.0" y="521.0" class="label">OUTBOUND</text>
<rect x="406" y="508" width="26" height="26" rx="4" class="dropoff" />
<text x="419.0" y="521.0" class="label">PACKING</text>
<circle cx="79.0" cy="521.0" r="11" class="start" />
<text x="79.0" y="521.0" class="label">A0</text>
<circle cx="215.0" cy="521.0" r="11" class="start" />
<text x="215.0" y="521.0" class="label">A1</text>
<circle cx="283.0" cy="521.0" r="11" class="start" />
<text x="283.0" y="521.0" class="label">A2</text>
<circle cx="385.0" cy="521.0" r="11" class="start" />
<text x="385.0" y="521.0" class="label">A3</text>
<circle cx="79.0" cy="487.0" r="11" class="start" />
<text x="79.0" y="487.0" class="label">A4</text>
<circle cx="215.0" cy="487.0" r="11" class="start" />
<text x="215.0" y="487.0" class="label">A5</text>
<circle cx="351.0" cy="487.0" r="11" class="start" />
<text x="351.0" y="487.0" class="label">A6</text>
<circle cx="487.0" cy="487.0" r="11" class="start" />
<text x="487.0" y="487.0" class="label">A7</text>
<polyline points="79.0,521.0 113.0,521.0 113.0,521.0 113.0,521.0 113.0,487.0 113.0,453.0 113.0,453.0 113.0,453.0 147.0,453.0 181.0,453.0 215.0,453.0 249.0,453.0 283.0,453.0 317.0,453.0 351.0,453.0 385.0,453.0 419.0,453.0 419.0,453.0 419.0,453.0 419.0,453.0 453.0,453.0 487.0,453.0 521.0,453.0 521.0,453.0 521.0,453.0 521.0,487.0 521.0,521.0 521.0,521.0 521.0,521.0 521.0,521.0 521.0,487.0 521.0,453.0 521.0,453.0 521.0,453.0 487.0,453.0 453.0,453.0 453.0,453.0 453.0,453.0 453.0,419.0 453.0,385.0 453.0,351.0 453.0,317.0 453.0,283.0 453.0,249.0 453.0,215.0 453.0,181.0 453.0,147.0 453.0,113.0 453.0,79.0 453.0,79.0 453.0,79.0 419.0,79.0 385.0,79.0 385.0,79.0 385.0,79.0 385.0,79.0 419.0,79.0 453.0,79.0 453.0,79.0 453.0,79.0 453.0,113.0 453.0,147.0 453.0,181.0 453.0,215.0 453.0,249.0 453.0,283.0 453.0,317.0 453.0,351.0 453.0,385.0 453.0,419.0 453.0,453.0 453.0,453.0 453.0,453.0 487.0,453.0 521.0,453.0 521.0,453.0 521.0,453.0 521.0,487.0 521.0,521.0 521.0,521.0 521.0,521.0 521.0,521.0 487.0,521.0 453.0,521.0 419.0,521.0 385.0,521.0 351.0,521.0 317.0,521.0 283.0,521.0 249.0,521.0 215.0,521.0 181.0,521.0 147.0,521.0 113.0,521.0 79.0,521.0" class="route" stroke="#2563eb" />
<polyline points="215.0,521.0 215.0,521.0 215.0,521.0 215.0,521.0 215.0,521.0 215.0,521.0 215.0,521.0 215.0,521.0 215.0,521.0 215.0,521.0 215.0,521.0 215.0,521.0 215.0,521.0 181.0,521.0 181.0,521.0 181.0,521.0 181.0,487.0 181.0,453.0 181.0,453.0 181.0,453.0 181.0,453.0 215.0,453.0 249.0,453.0 283.0,453.0 317.0,453.0 351.0,453.0 385.0,453.0 419.0,453.0 453.0,453.0 453.0,453.0 453.0,453.0 453.0,487.0 453.0,521.0 453.0,521.0 453.0,521.0 487.0,521.0 521.0,521.0 521.0,521.0 521.0,521.0 521.0,521.0 487.0,521.0 453.0,521.0 453.0,521.0 453.0,521.0 453.0,487.0 453.0,487.0 453.0,487.0 419.0,487.0 419.0,487.0 419.0,487.0 419.0,453.0 419.0,453.0 419.0,453.0 385.0,453.0 351.0,453.0 351.0,453.0 351.0,453.0 351.0,419.0 351.0,385.0 351.0,351.0 351.0,317.0 351.0,283.0 351.0,249.0 351.0,249.0 351.0,249.0 317.0,249.0 283.0,249.0 249.0,249.0 215.0,249.0 181.0,249.0 181.0,249.0 181.0,249.0 181.0,249.0 181.0,249.0 181.0,249.0 215.0,249.0 249.0,249.0 283.0,249.0 317.0,249.0 317.0,249.0 317.0,249.0 317.0,283.0 317.0,317.0 317.0,351.0 317.0,385.0 317.0,419.0 317.0,453.0 317.0,487.0 317.0,521.0 317.0,521.0 317.0,521.0 317.0,521.0 283.0,521.0 249.0,521.0 215.0,521.0" class="route" stroke="#dc2626" />
<polyline points="283.0,521.0 283.0,521.0 283.0,521.0 283.0,521.0 283.0,521.0 283.0,521.0 283.0,521.0 283.0,521.0 283.0,521.0 283.0,521.0 283.0,521.0 283.0,521.0 283.0,521.0 283.0,521.0 283.0,521.0 283.0,521.0 283.0,521.0 283.0,521.0 283.0,521.0 283.0,521.0 283.0,521.0 283.0,521.0 283.0,521.0 283.0,521.0 283.0,521.0 283.0,487.0 283.0,453.0 283.0,453.0 283.0,453.0 249.0,453.0 215.0,453.0 215.0,453.0 215.0,453.0 215.0,419.0 215.0,385.0 215.0,351.0 215.0,317.0 215.0,283.0 215.0,283.0 215.0,283.0 249.0,283.0 249.0,283.0 249.0,283.0 249.0,283.0 283.0,283.0 317.0,283.0 317.0,283.0 317.0,283.0 317.0,317.0 317.0,351.0 317.0,385.0 317.0,419.0 317.0,453.0 317.0,487.0 317.0,521.0 317.0,521.0 317.0,521.0 317.0,521.0 317.0,487.0 317.0,453.0 317.0,419.0 317.0,385.0 317.0,351.0 317.0,317.0 317.0,283.0 317.0,283.0 317.0,283.0 283.0,283.0 249.0,283.0 215.0,283.0 181.0,283.0 147.0,283.0 147.0,283.0 147.0,283.0 147.0,283.0 181.0,283.0 215.0,283.0 249.0,283.0 283.0,283.0 317.0,283.0 351.0,283.0 385.0,283.0 419.0,283.0 453.0,283.0 453.0,283.0 453.0,283.0 453.0,317.0 453.0,351.0 453.0,385.0 453.0,419.0 453.0,453.0 453.0,487.0 453.0,487.0 453.0,487.0 487.0,487.0 521.0,487.0 521.0,487.0 521.0,487.0 521.0,521.0 521.0,521.0 521.0,521.0 521.0,521.0 487.0,521.0 453.0,521.0 419.0,521.0 385.0,521.0 351.0,521.0 317.0,521.0 283.0,521.0" class="route" stroke="#16a34a" />
<polyline points="385.0,521.0 385.0,521.0 385.0,521.0 385.0,521.0 385.0,521.0 385.0,521.0 385.0,521.0 385.0,521.0 385.0,521.0 385.0,521.0 385.0,521.0 385.0,521.0 385.0,521.0 385.0,521.0 385.0,521.0 385.0,521.0 385.0,521.0 385.0,521.0 385.0,521.0 385.0,521.0 385.0,521.0 385.0,521.0 385.0,521.0 385.0,521.0 385.0,521.0 385.0,521.0 385.0,521.0 385.0,521.0 385.0,521.0 385.0,521.0 385.0,521.0 385.0,521.0 385.0,521.0 385.0,521.0 385.0,521.0 385.0,521.0 385.0,521.0 385.0,487.0 385.0,453.0 385.0,453.0 385.0,453.0 419.0,453.0 453.0,453.0 453.0,453.0 453.0,453.0 453.0,419.0 453.0,385.0 453.0,351.0 453.0,317.0 453.0,283.0 453.0,283.0 453.0,283.0 487.0,283.0 487.0,283.0 487.0,283.0 487.0,283.0 453.0,283.0 453.0,283.0 453.0,283.0 453.0,317.0 453.0,351.0 453.0,385.0 453.0,419.0 453.0,453.0 453.0,453.0 453.0,453.0 419.0,453.0 419.0,453.0 419.0,453.0 419.0,487.0 419.0,521.0 419.0,521.0 419.0,521.0 419.0,521.0 419.0,487.0 419.0,453.0 419.0,453.0 419.0,453.0 385.0,453.0 351.0,453.0 351.0,453.0 351.0,453.0 351.0,419.0 351.0,385.0 351.0,351.0 351.0,317.0 351.0,283.0 351.0,249.0 351.0,215.0 351.0,181.0 351.0,147.0 351.0,113.0 351.0,79.0 351.0,79.0 351.0,79.0 317.0,79.0 283.0,79.0 249.0,79.0 215.0,79.0 181.0,79.0 147.0,79.0 147.0,79.0 147.0,79.0 147.0,79.0 181.0,79.0 215.0,79.0 249.0,79.0 283.0,79.0 317.0,79.0 317.0,79.0 317.0,79.0 317.0,113.0 317.0,147.0 317.0,181.0 317.0,215.0 317.0,249.0 317.0,283.0 317.0,317.0 317.0,351.0 317.0,385.0 317.0,419.0 317.0,453.0 317.0,487.0 317.0,521.0 317.0,521.0 317.0,521.0 317.0,521.0 351.0,521.0 385.0,521.0" class="route" stroke="#9333ea" />
<polyline points="79.0,487.0 79.0,487.0 79.0,487.0 79.0,487.0 79.0,487.0 79.0,487.0 79.0,487.0 79.0,487.0 79.0,487.0 79.0,487.0 79.0,487.0 79.0,487.0 79.0,487.0 79.0,487.0 79.0,487.0 79.0,487.0 79.0,487.0 79.0,487.0 79.0,487.0 79.0,487.0 79.0,487.0 79.0,487.0 79.0,487.0 79.0,487.0 79.0,487.0 79.0,487.0 79.0,487.0 79.0,487.0 79.0,487.0 79.0,487.0 79.0,487.0 79.0,487.0 79.0,487.0 79.0,487.0 79.0,487.0 79.0,487.0 79.0,487.0 79.0,487.0 79.0,487.0 79.0,487.0 79.0,487.0 79.0,487.0 79.0,487.0 79.0,487.0 79.0,487.0 79.0,487.0 79.0,487.0 79.0,487.0 79.0,487.0 79.0,453.0 79.0,419.0 79.0,385.0 79.0,351.0 79.0,317.0 79.0,283.0 79.0,249.0 79.0,249.0 79.0,249.0 113.0,249.0 147.0,249.0 147.0,249.0 147.0,249.0 147.0,249.0 147.0,249.0 147.0,249.0 147.0,249.0 147.0,249.0 147.0,249.0 147.0,249.0 147.0,249.0 147.0,249.0 147.0,249.0 147.0,249.0 147.0,249.0 147.0,249.0 147.0,283.0 147.0,283.0 147.0,283.0 181.0,283.0 215.0,283.0 215.0,283.0 215.0,283.0 215.0,317.0 215.0,351.0 215.0,385.0 215.0,419.0 215.0,453.0 215.0,453.0 215.0,453.0 249.0,453.0 283.0,453.0 317.0,453.0 317.0,453.0 317.0,453.0 317.0,487.0 317.0,521.0 317.0,521.0 317.0,521.0 317.0,521.0 317.0,487.0 317.0,453.0 317.0,419.0 317.0,385.0 317.0,351.0 317.0,317.0 317.0,283.0 317.0,249.0 317.0,249.0 317.0,249.0 283.0,249.0 249.0,249.0 215.0,249.0 215.0,249.0 215.0,249.0 215.0,215.0 215.0,181.0 215.0,147.0 215.0,113.0 215.0,79.0 215.0,79.0 215.0,79.0 181.0,79.0 147.0,79.0 147.0,79.0 147.0,79.0 147.0,79.0 181.0,79.0 215.0,79.0 249.0,79.0 283.0,79.0 317.0,79.0 317.0,79.0 317.0,79.0 317.0,113.0 317.0,147.0 317.0,181.0 317.0,215.0 317.0,249.0 317.0,283.0 317.0,317.0 317.0,351.0 317.0,385.0 317.0,419.0 317.0,453.0 317.0,487.0 317.0,521.0 317.0,521.0 317.0,521.0 317.0,521.0 317.0,487.0 317.0,487.0 317.0,487.0 283.0,487.0 249.0,487.0 215.0,487.0 181.0,487.0 147.0,487.0 113.0,487.0 79.0,487.0" class="route" stroke="#ea580c" />
<polyline points="215.0,487.0 215.0,487.0 215.0,487.0 215.0,487.0 215.0,487.0 215.0,487.0 215.0,487.0 215.0,487.0 215.0,487.0 215.0,487.0 215.0,487.0 215.0,487.0 215.0,487.0 215.0,487.0 215.0,487.0 215.0,487.0 215.0,487.0 215.0,487.0 215.0,487.0 215.0,487.0 215.0,487.0 215.0,487.0 215.0,487.0 215.0,487.0 215.0,487.0 215.0,487.0 215.0,487.0 215.0,487.0 215.0,487.0 215.0,487.0 215.0,487.0 215.0,487.0 215.0,487.0 215.0,487.0 215.0,487.0 215.0,487.0 215.0,487.0 215.0,487.0 215.0,487.0 215.0,487.0 215.0,487.0 215.0,487.0 215.0,487.0 215.0,487.0 215.0,487.0 215.0,487.0 215.0,487.0 215.0,487.0 215.0,487.0 215.0,487.0 215.0,487.0 215.0,487.0 215.0,487.0 215.0,487.0 215.0,487.0 215.0,487.0 215.0,487.0 215.0,487.0 215.0,487.0 215.0,487.0 215.0,487.0 215.0,487.0 215.0,487.0 215.0,487.0 215.0,487.0 215.0,487.0 215.0,487.0 215.0,487.0 215.0,487.0 215.0,487.0 215.0,487.0 215.0,487.0 215.0,487.0 215.0,487.0 215.0,487.0 215.0,487.0 215.0,487.0 215.0,487.0 215.0,487.0 215.0,487.0 215.0,487.0 215.0,487.0 215.0,453.0 215.0,453.0 215.0,453.0 249.0,453.0 283.0,453.0 317.0,453.0 317.0,453.0 317.0,453.0 317.0,419.0 317.0,385.0 317.0,351.0 317.0,317.0 317.0,283.0 317.0,283.0 317.0,283.0 283.0,283.0 249.0,283.0 249.0,283.0 249.0,283.0 249.0,283.0 283.0,283.0 317.0,283.0 351.0,283.0 385.0,283.0 419.0,283.0 453.0,283.0 453.0,283.0 453.0,283.0 453.0,317.0 453.0,351.0 453.0,385.0 453.0,419.0 453.0,453.0 453.0,453.0 453.0,453.0 487.0,453.0 521.0,453.0 521.0,453.0 521.0,453.0 521.0,487.0 521.0,521.0 521.0,521.0 521.0,521.0 521.0,521.0 521.0,521.0 521.0,521.0 521.0,521.0 521.0,521.0 521.0,521.0 521.0,521.0 521.0,521.0 521.0,521.0 521.0,521.0 521.0,521.0 521.0,521.0 521.0,521.0 521.0,521.0 521.0,521.0 521.0,521.0 521.0,521.0 521.0,521.0 521.0,521.0 521.0,521.0 521.0,521.0 521.0,521.0 521.0,521.0 521.0,521.0 521.0,521.0 521.0,521.0 521.0,521.0 521.0,521.0 521.0,521.0 521.0,521.0 521.0,521.0 521.0,521.0 521.0,521.0 521.0,521.0 521.0,521.0 521.0,521.0 521.0,521.0 521.0,521.0 521.0,521.0 521.0,521.0 521.0,521.0 521.0,521.0 521.0,521.0 521.0,521.0 521.0,521.0 521.0,521.0 521.0,521.0 521.0,521.0 521.0,521.0 521.0,521.0 521.0,521.0 521.0,521.0 521.0,521.0 521.0,521.0 521.0,521.0 521.0,487.0 521.0,487.0 521.0,487.0 487.0,487.0 453.0,487.0 419.0,487.0 385.0,487.0 385.0,487.0 385.0,487.0 385.0,453.0 385.0,453.0 385.0,453.0 351.0,453.0 351.0,453.0 351.0,453.0 351.0,419.0 351.0,385.0 351.0,351.0 351.0,317.0 351.0,283.0 351.0,249.0 351.0,249.0 351.0,249.0 317.0,249.0 283.0,249.0 249.0,249.0 215.0,249.0 215.0,249.0 215.0,249.0 215.0,215.0 215.0,181.0 215.0,147.0 215.0,113.0 215.0,113.0 215.0,79.0 215.0,79.0 215.0,79.0 181.0,79.0 181.0,79.0 181.0,79.0 181.0,79.0 215.0,79.0 249.0,79.0 283.0,79.0 317.0,79.0 317.0,79.0 317.0,79.0 317.0,113.0 317.0,147.0 317.0,181.0 317.0,215.0 317.0,249.0 317.0,283.0 317.0,317.0 317.0,351.0 317.0,385.0 317.0,419.0 317.0,453.0 317.0,487.0 317.0,521.0 317.0,521.0 317.0,521.0 317.0,521.0 317.0,487.0 317.0,487.0 317.0,487.0 283.0,487.0 249.0,487.0 215.0,487.0" class="route" stroke="#0891b2" />
<polyline points="351.0,487.0 351.0,487.0 351.0,487.0 351.0,487.0 351.0,487.0 351.0,487.0 351.0,487.0 351.0,487.0 351.0,487.0 351.0,487.0 351.0,487.0 351.0,487.0 351.0,487.0 351.0,487.0 351.0,487.0 351.0,487.0 351.0,487.0 351.0,487.0 351.0,487.0 351.0,487.0 351.0,487.0 351.0,487.0 351.0,487.0 351.0,487.0 351.0,487.0 351.0,487.0 351.0,487.0 351.0,487.0 351.0,487.0 351.0,487.0 351.0,487.0 351.0,487.0 351.0,487.0 351.0,487.0 351.0,487.0 351.0,487.0 351.0,487.0 351.0,487.0 351.0,487.0 351.0,487.0 351.0,487.0 351.0,487.0 351.0,487.0 351.0,487.0 351.0,487.0 351.0,487.0 351.0,487.0 351.0,487.0 351.0,487.0 351.0,487.0 351.0,487.0 351.0,487.0 351.0,487.0 351.0,487.0 351.0,487.0 351.0,487.0 351.0,487.0 351.0,487.0 351.0,487.0 351.0,487.0 351.0,487.0 351.0,487.0 351.0,487.0 351.0,487.0 351.0,487.0 351.0,487.0 351.0,487.0 351.0,487.0 351.0,487.0 351.0,487.0 351.0,487.0 351.0,487.0 351.0,487.0 351.0,453.0 351.0,419.0 351.0,385.0 351.0,351.0 351.0,317.0 351.0,283.0 351.0,249.0 351.0,215.0 351.0,215.0 351.0,215.0 317.0,215.0 317.0,215.0 317.0,215.0 317.0,249.0 317.0,249.0 317.0,249.0 283.0,249.0 249.0,249.0 249.0,249.0 249.0,249.0 249.0,249.0 283.0,249.0 317.0,249.0 351.0,249.0 351.0,249.0 351.0,249.0 351.0,283.0 351.0,317.0 351.0,351.0 351.0,385.0 351.0,419.0 351.0,453.0 351.0,453.0 351.0,453.0 385.0,453.0 419.0,453.0 419.0,453.0 419.0,453.0 419.0,487.0 419.0,521.0 419.0,521.0 419.0,521.0 419.0,521.0 419.0,487.0 419.0,453.0 419.0,453.0 419.0,453.0 385.0,453.0 351.0,453.0 351.0,453.0 351.0,453.0 351.0,419.0 351.0,385.0 351.0,351.0 351.0,317.0 351.0,283.0 351.0,249.0 351.0,249.0 351.0,249.0 317.0,249.0 283.0,249.0 249.0,249.0 215.0,249.0 215.0,249.0 215.0,249.0 215.0,215.0 215.0,181.0 215.0,147.0 215.0,113.0 215.0,79.0 215.0,79.0 215.0,79.0 181.0,79.0 147.0,79.0 147.0,79.0 147.0,79.0 147.0,79.0 181.0,79.0 215.0,79.0 249.0,79.0 283.0,79.0 317.0,79.0 317.0,79.0 317.0,79.0 317.0,113.0 317.0,113.0 317.0,113.0 351.0,113.0 351.0,113.0 351.0,113.0 351.0,147.0 351.0,181.0 351.0,215.0 351.0,249.0 351.0,283.0 351.0,317.0 351.0,351.0 351.0,385.0 351.0,419.0 351.0,453.0 351.0,453.0 351.0,453.0 385.0,453.0 419.0,453.0 419.0,453.0 419.0,453.0 419.0,487.0 419.0,521.0 419.0,521.0 419.0,521.0 419.0,521.0 419.0,521.0 419.0,521.0 419.0,521.0 453.0,521.0 453.0,521.0 453.0,521.0 453.0,487.0 453.0,487.0 453.0,487.0 419.0,487.0 419.0,487.0 419.0,487.0 385.0,487.0 351.0,487.0" class="route" stroke="#2563eb" />
<polyline points="487.0,487.0 487.0,487.0 487.0,487.0 487.0,487.0 487.0,487.0 487.0,487.0 487.0,487.0 487.0,487.0 487.0,487.0 487.0,487.0 487.0,487.0 487.0,487.0 487.0,487.0 487.0,487.0 487.0,487.0 487.0,487.0 487.0,487.0 487.0,487.0 487.0,487.0 487.0,487.0 487.0,487.0 487.0,487.0 487.0,487.0 487.0,487.0 487.0,487.0 487.0,487.0 487.0,487.0 487.0,487.0 487.0,487.0 487.0,487.0 487.0,487.0 487.0,487.0 487.0,487.0 487.0,487.0 487.0,487.0 487.0,487.0 487.0,487.0 487.0,487.0 487.0,487.0 487.0,487.0 487.0,487.0 487.0,487.0 487.0,487.0 487.0,487.0 487.0,487.0 487.0,487.0 487.0,487.0 487.0,487.0 487.0,487.0 487.0,487.0 487.0,487.0 487.0,487.0 487.0,487.0 487.0,487.0 487.0,487.0 487.0,487.0 487.0,487.0 487.0,487.0 487.0,487.0 487.0,487.0 487.0,487.0 487.0,487.0 487.0,487.0 487.0,487.0 487.0,487.0 487.0,487.0 487.0,487.0 487.0,487.0 487.0,487.0 487.0,487.0 487.0,487.0 487.0,487.0 487.0,487.0 487.0,487.0 487.0,487.0 487.0,487.0 487.0,487.0 487.0,487.0 487.0,487.0 487.0,487.0 487.0,487.0 487.0,487.0 487.0,487.0 487.0,487.0 487.0,487.0 487.0,453.0 487.0,453.0 487.0,453.0 487.0,453.0 487.0,453.0 487.0,453.0 453.0,453.0 453.0,453.0 453.0,453.0 453.0,419.0 453.0,385.0 453.0,351.0 453.0,317.0 453.0,283.0 453.0,249.0 453.0,215.0 453.0,181.0 453.0,147.0 453.0,113.0 453.0,79.0 453.0,79.0 453.0,79.0 419.0,79.0 419.0,79.0 419.0,79.0 419.0,79.0 453.0,79.0 453.0,79.0 453.0,79.0 453.0,113.0 453.0,147.0 453.0,181.0 453.0,215.0 453.0,249.0 453.0,283.0 453.0,317.0 453.0,351.0 453.0,385.0 453.0,419.0 453.0,419.0 453.0,419.0 453.0,453.0 453.0,453.0 453.0,453.0 419.0,453.0 419.0,453.0 419.0,453.0 419.0,487.0 419.0,521.0 419.0,521.0 419.0,521.0 419.0,521.0 419.0,487.0 419.0,453.0 419.0,453.0 419.0,453.0 385.0,453.0 351.0,453.0 351.0,453.0 351.0,453.0 351.0,419.0 351.0,385.0 351.0,351.0 351.0,317.0 351.0,283.0 351.0,249.0 351.0,215.0 351.0,181.0 351.0,147.0 351.0,113.0 351.0,79.0 351.0,79.0 351.0,79.0 317.0,79.0 283.0,79.0 249.0,79.0 215.0,79.0 181.0,79.0 147.0,79.0 147.0,79.0 147.0,79.0 147.0,79.0 181.0,79.0 215.0,79.0 249.0,79.0 283.0,79.0 317.0,79.0 351.0,79.0 351.0,79.0 351.0,79.0 351.0,113.0 351.0,147.0 351.0,181.0 351.0,215.0 351.0,249.0 351.0,283.0 351.0,317.0 351.0,351.0 351.0,385.0 351.0,419.0 351.0,453.0 351.0,453.0 351.0,453.0 385.0,453.0 419.0,453.0 419.0,453.0 419.0,453.0 419.0,487.0 419.0,521.0 419.0,521.0 419.0,521.0 419.0,521.0 419.0,487.0 419.0,487.0 419.0,487.0 453.0,487.0 487.0,487.0" class="route" stroke="#dc2626" />
<text x="606" y="46" class="legend-title">Tasks and AGV routes</text>
<line x1="606" y1="68" x2="632" y2="68" stroke="#2563eb" stroke-width="4" />
<text x="642" y="72" class="small">AGV 0: T012, T009 | edges=94</text>
<line x1="606" y1="90" x2="632" y2="90" stroke="#dc2626" stroke-width="4" />
<text x="642" y="94" class="small">AGV 1: T015, T016 | edges=94</text>
<line x1="606" y1="112" x2="632" y2="112" stroke="#16a34a" stroke-width="4" />
<text x="642" y="116" class="small">AGV 2: T001, T007 | edges=108</text>
<line x1="606" y1="134" x2="632" y2="134" stroke="#9333ea" stroke-width="4" />
<text x="642" y="138" class="small">AGV 3: T004, T008 | edges=128</text>
<line x1="606" y1="156" x2="632" y2="156" stroke="#ea580c" stroke-width="4" />
<text x="642" y="160" class="small">AGV 4: T006, T010 | edges=158</text>
<line x1="606" y1="178" x2="632" y2="178" stroke="#0891b2" stroke-width="4" />
<text x="642" y="182" class="small">AGV 5: T003, T005 | edges=248</text>
<line x1="606" y1="200" x2="632" y2="200" stroke="#2563eb" stroke-width="4" />
<text x="642" y="204" class="small">AGV 6: T011, T002 | edges=197</text>
<line x1="606" y1="222" x2="632" y2="222" stroke="#dc2626" stroke-width="4" />
<text x="642" y="226" class="small">AGV 7: T014, T013 | edges=201</text>
<text x="606" y="262" class="legend-title">Task details</text>
<text x="606" y="286" class="small">T001: S18 -> INBOUND</text>
<text x="606" y="305" class="small">T002: S1 -> PACKING</text>
<text x="606" y="324" class="small">T003: S18 -> OUTBOUND</text>
<text x="606" y="343" class="small">T004: S20 -> PACKING</text>
<text x="606" y="362" class="small">T005: S2 -> INBOUND</text>
<text x="606" y="381" class="small">T006: S9 -> INBOUND</text>
<text x="606" y="400" class="small">T007: S17 -> OUTBOUND</text>
<text x="606" y="419" class="small">T008: S1 -> INBOUND</text>
<text x="606" y="438" class="small">T009: S5 -> OUTBOUND</text>
<text x="606" y="457" class="small">T010: S1 -> INBOUND</text>
<text x="606" y="476" class="small">T011: S11 -> PACKING</text>
<text x="606" y="495" class="small">T012: S23 -> OUTBOUND</text>
<text x="606" y="514" class="small">T013: S1 -> PACKING</text>
<text x="606" y="533" class="small">T014: S6 -> PACKING</text>
<text x="606" y="552" class="small">T015: S21 -> OUTBOUND</text>
<text x="606" y="571" class="small">T016: S10 -> INBOUND</text>
</svg>