<svg xmlns="http://www.w3.org/2000/svg" width="960" height="620" viewBox="0 0 960 620">
<style>
  .title { font: 700 18px Arial, sans-serif; fill: #111827; }
  .cell { stroke: #d1d5db; stroke-width: 1; }
  .free { fill: #f8fafc; }
  .shelf { fill: #334155; }
  .pickup { fill: #fde68a; stroke: #92400e; stroke-width: 1.5; }
  .dropoff { fill: #bbf7d0; stroke: #166534; stroke-width: 1.5; }
  .start { fill: #bfdbfe; stroke: #1d4ed8; stroke-width: 1.5; }
  .label { font: 700 9px Arial, sans-serif; fill: #111827; text-anchor: middle; dominant-baseline: central; }
  .small { font: 12px Arial, sans-serif; fill: #374151; }
  .legend-title { font: 700 14px Arial, sans-serif; fill: #111827; }
  .route { fill: none; stroke-width: 4; stroke-linecap: round; stroke-linejoin: round; opacity: 0.74; }
</style>
<text x="28" y="24" class="title">Warehouse AGV Route Map</text>
<rect x="28" y="28" width="34" height="34" class="cell free" />
<rect x="62" y="28" width="34" height="34" class="cell free" />
<rect x="96" y="28" width="34" height="34" class="cell free" />
<rect x="130" y="28" width="34" height="34" class="cell free" />
<rect x="164" y="28" width="34" height="34" class="cell free" />
<rect x="198" y="28" width="34" height="34" class="cell free" />
<rect x="232" y="28" width="34" height="34" class="cell free" />
<rect x="266" y="28" width="34" height="34" class="cell free" />
<rect x="300" y="28" width="34" height="34" class="cell free" />
<rect x="334" y="28" width="34" height="34" class="cell free" />
<rect x="368" y="28" width="34" height="34" class="cell free" />
<rect x="402" y="28" width="34" height="34" class="cell free" />
<rect x="436" y="28" width="34" height="34" class="cell free" />
<rect x="470" y="28" width="34" height="34" class="cell free" />
<rect x="504" y="28" width="34" height="34" class="cell free" />
<rect x="538" y="28" width="34" height="34" class="cell free" />
<rect x="28" y="62" width="34" height="34" class="cell free" />
<rect x="62" y="62" width="34" height="34" class="cell free" />
<rect x="96" y="62" width="34" height="34" class="cell free" />
<rect x="130" y="62" width="34" height="34" class="cell free" />
<rect x="164" y="62" width="34" height="34" class="cell free" />
<rect x="198" y="62" width="34" height="34" class="cell free" />
<rect x="232" y="62" width="34" height="34" class="cell free" />
<rect x="266" y="62" width="34" height="34" class="cell free" />
<rect x="300" y="62" width="34" height="34" class="cell free" />
<rect x="334" y="62" width="34" height="34" class="cell free" />
<rect x="368" y="62" width="34" height="34" class="cell free" />
<rect x="402" y="62" width="34" height="34" class="cell free" />
<rect x="436" y="62" width="34" height="34" class="cell free" />
<rect x="470" y="62" width="34" height="34" class="cell free" />
<rect x="504" y="62" width="34" height="34" class="cell free" />
<rect x="538" y="62" width="34" height="34" class="cell free" />
<rect x="28" y="96" width="34" height="34" class="cell free" />
<rect x="62" y="96" width="34" height="34" class="cell free" />
<rect x="96" y="96" width="34" height="34" class="cell free" />
<rect x="130" y="96" width="34" height="34" class="cell shelf" />
<rect x="164" y="96" width="34" height="34" class="cell shelf" />
<rect x="198" y="96" width="34" height="34" class="cell free" />
<rect x="232" y="96" width="34" height="34" class="cell shelf" />
<rect x="266" y="96" width="34" height="34" class="cell shelf" />
<rect x="300" y="96" width="34" height="34" class="cell free" />
<rect x="334" y="96" width="34" height="34" class="cell free" />
<rect x="368" y="96" width="34" height="34" class="cell shelf" />
<rect x="402" y="96" width="34" height="34" class="cell shelf" />
<rect x="436" y="96" width="34" height="34" class="cell free" />
<rect x="470" y="96" width="34" height="34" class="cell shelf" />
<rect x="504" y="96" width="34" height="34" class="cell shelf" />
<rect x="538" y="96" width="34" height="34" class="cell free" />
<rect x="28" y="130" width="34" height="34" class="cell free" />
<rect x="62" y="130" width="34" height="34" class="cell free" />
<rect x="96" y="130" width="34" height="34" class="cell free" />
<rect x="130" y="130" width="34" height="34" class="cell shelf" />
<rect x="164" y="130" width="34" height="34" class="cell shelf" />
<rect x="198" y="130" width="34" height="34" class="cell free" />
<rect x="232" y="130" width="34" height="34" class="cell shelf" />
<rect x="266" y="130" width="34" height="34" class="cell shelf" />
<rect x="300" y="130" width="34" height="34" class="cell free" />
<rect x="334" y="130" width="34" height="34" class="cell free" />
<rect x="368" y="130" width="34" height="34" class="cell shelf" />
<rect x="402" y="130" width="34" height="34" class="cell shelf" />
<rect x="436" y="130" width="34" height="34" class="cell free" />
<rect x="470" y="130" width="34" height="34" class="cell shelf" />
<rect x="504" y="130" width="34" height="34" class="cell shelf" />
<rect x="538" y="130" width="34" height="34" class="cell free" />
<rect x="28" y="164" width="34" height="34" class="cell free" />
<rect x="62" y="164" width="34" height="34" class="cell free" />
<rect x="96" y="164" width="34" height="34" class="cell free" />
<rect x="130" y="164" width="34" height="34" class="cell shelf" />
<rect x="164" y="164" width="34" height="34" class="cell shelf" />
<rect x="198" y="164" width="34" height="34" class="cell free" />
<rect x="232" y="164" width="34" height="34" class="cell shelf" />
<rect x="266" y="164" width="34" height="34" class="cell shelf" />
<rect x="300" y="164" width="34" height="34" class="cell free" />
<rect x="334" y="164" width="34" height="34" class="cell free" />
<rect x="368" y="164" width="34" height="34" class="cell shelf" />
<rect x="402" y="164" width="34" height="34" class="cell shelf" />
<rect x="436" y="164" width="34" height="34" class="cell free" />
<rect x="470" y="164" width="34" height="34" class="cell shelf" />
<rect x="504" y="164" width="34" height="34" class="cell shelf" />
<rect x="538" y="164" width="34" height="34" class="cell free" />
<rect x="28" y="198" width="34" height="34" class="cell free" />
<rect x="62" y="198" width="34" height="34" class="cell free" />
<rect x="96" y="198" width="34" height="34" class="cell free" />
<rect x="130" y="198" width="34" height="34" class="cell shelf" />
<rect x="164" y="198" width="34" height="34" class="cell shelf" />
<rect x="198" y="198" width="34" height="34" class="cell free" />
<rect x="232" y="198" width="34" height="34" class="cell shelf" />
<rect x="266" y="198" width="34" height="34" class="cell shelf" />
<rect x="300" y="198" width="34" height="34" class="cell free" />
<rect x="334" y="198" width="34" height="34" class="cell free" />
<rect x="368" y="198" width="34" height="34" class="cell shelf" />
<rect x="402" y="198" width="34" height="34" class="cell shelf" />
<rect x="436" y="198" width="34" height="34" class="cell free" />
<rect x="470" y="198" width="34" height="34" class="cell shelf" />
<rect x="504" y="198" width="34" height="34" class="cell shelf" />
<rect x="538" y="198" width="34" height="34" class="cell free" />
<rect x="28" y="232" width="34" height="34" class="cell free" />
<rect x="62" y="232" width="34" height="34" class="cell free" />
<rect x="96" y="232" width="34" height="34" class="cell free" />
<rect x="130" y="232" width="34" height="34" class="cell free" />
<rect x="164" y="232" width="34" height="34" class="cell free" />
<rect x="198" y="232" width="34" height="34" class="cell free" />
<rect x="232" y="232" width="34" height="34" class="cell free" />
<rect x="266" y="232" width="34" height="34" class="cell free" />
<rect x="300" y="232" width="34" height="34" class="cell free" />
<rect x="334" y="232" width="34" height="34" class="cell free" />
<rect x="368" y="232" width="34" height="34" class="cell free" />
<rect x="402" y="232" width="34" height="34" class="cell free" />
<rect x="436" y="232" width="34" height="34" class="cell free" />
<rect x="470" y="232" width="34" height="34" class="cell free" />
<rect x="504" y="232" width="34" height="34" class="cell free" />
<rect x="538" y="232" width="34" height="34" class="cell free" />
<rect x="28" y="266" width="34" height="34" class="cell free" />
<rect x="62" y="266" width="34" height="34" class="cell free" />
<rect x="96" y="266" width="34" height="34" class="cell free" />
<rect x="130" y="266" width="34" height="34" class="cell free" />
<rect x="164" y="266" width="34" height="34" class="cell free" />
<rect x="198" y="266" width="34" height="34" class="cell free" />
<rect x="232" y="266" width="34" height="34" class="cell free" />
<rect x="266" y="266" width="34" height="34" class="cell free" />
<rect x="300" y="266" width="34" height="34" class="cell free" />
<rect x="334" y="266" width="34" height="34" class="cell free" />
<rect x="368" y="266" width="34" height="34" class="cell free" />
<rect x="402" y="266" width="34" height="34" class="cell free" />
<rect x="436" y="266" width="34" height="34" class="cell free" />
<rect x="470" y="266" width="34" height="34" class="cell free" />
<rect x="504" y="266" width="34" height="34" class="cell free" />
<rect x="538" y="266" width="34" height="34" class="cell free" />
<rect x="28" y="300" width="34" height="34" class="cell free" />
<rect x="62" y="300" width="34" height="34" class="cell free" />
<rect x="96" y="300" width="34" height="34" class="cell free" />
<rect x="130" y="300" width="34" height="34" class="cell shelf" />
<rect x="164" y="300" width="34" height="34" class="cell shelf" />
<rect x="198" y="300" width="34" height="34" class="cell free" />
<rect x="232" y="300" width="34" height="34" class="cell shelf" />
<rect x="266" y="300" width="34" height="34" class="cell shelf" />
<rect x="300" y="300" width="34" height="34" class="cell free" />
<rect x="334" y="300" width="34" height="34" class="cell free" />
<rect x="368" y="300" width="34" height="34" class="cell shelf" />
<rect x="402" y="300" width="34" height="34" class="cell shelf" />
<rect x="436" y="300" width="34" height="34" class="cell free" />
<rect x="470" y="300" width="34" height="34" class="cell shelf" />
<rect x="504" y="300" width="34" height="34" class="cell shelf" />
<rect x="538" y="300" width="34" height="34" class="cell free" />
<rect x="28" y="334" width="34" height="34" class="cell free" />
<rect x="62" y="334" width="34" height="34" class="cell free" />
<rect x="96" y="334" width="34" height="34" class="cell free" />
<rect x="130" y="334" width="34" height="34" class="cell shelf" />
<rect x="164" y="334" width="34" height="34" class="cell shelf" />
<rect x="198" y="334" width="34" height="34" class="cell free" />
<rect x="232" y="334" width="34" height="34" class="cell shelf" />
<rect x="266" y="334" width="34" height="34" class="cell shelf" />
<rect x="300" y="334" width="34" height="34" class="cell free" />
<rect x="334" y="334" width="34" height="34" class="cell free" />
<rect x="368" y="334" width="34" height="34" class="cell shelf" />
<rect x="402" y="334" width="34" height="34" class="cell shelf" />
<rect x="436" y="334" width="34" height="34" class="cell free" />
<rect x="470" y="334" width="34" height="34" class="cell shelf" />
<rect x="504" y="334" width="34" height="34" class="cell shelf" />
<rect x="538" y="334" width="34" height="34" class="cell free" />
<rect x="28" y="368" width="34" height="34" class="cell free" />
<rect x="62" y="368" width="34" height="34" class="cell free" />
<rect x="96" y="368" width="34" height="34" class="cell free" />
<rect x="130" y="368" width="34" height="34" class="cell shelf" />
<rect x="164" y="368" width="34" height="34" class="cell shelf" />
<rect x="198" y="368" width="34" height="34" class="cell free" />
<rect x="232" y="368" width="34" height="34" class="cell shelf" />
<rect x="266" y="368" width="34" height="34" class="cell shelf" />
<rect x="300" y="368" width="34" height="34" class="cell free" />
<rect x="334" y="368" width="34" height="34" class="cell free" />
<rect x="368" y="368" width="34" height="34" class="cell shelf" />
<rect x="402" y="368" width="34" height="34" class="cell shelf" />
<rect x="436" y="368" width="34" height="34" class="cell free" />
<rect x="470" y="368" width="34" height="34" class="cell shelf" />
<rect x="504" y="368" width="34" height="34" class="cell shelf" />
<rect x="538" y="368" width="34" height="34" class="cell free" />
<rect x="28" y="402" width="34" height="34" class="cell free" />
<rect x="62" y="402" width="34" height="34" class="cell free" />
<rect x="96" y="402" width="34" height="34" class="cell free" />
<rect x="130" y="402" width="34" height="34" class="cell shelf" />
<rect x="164" y="402" width="34" height="34" class="cell shelf" />
<rect x="198" y="402" width="34" height="34" class="cell free" />
<rect x="232" y="402" width="34" height="34" class="cell shelf" />
<rect x="266" y="402" width="34" height="34" class="cell shelf" />
<rect x="300" y="402" width="34" height="34" class="cell free" />
<rect x="334" y="402" width="34" height="34" class="cell free" />
<rect x="368" y="402" width="34" height="34" class="cell shelf" />
<rect x="402" y="402" width="34" height="34" class="cell shelf" />
<rect x="436" y="402" width="34" height="34" class="cell free" />
<rect x="470" y="402" width="34" height="34" class="cell shelf" />
<rect x="504" y="402" width="34" height="34" class="cell shelf" />
<rect x="538" y="402" width="34" height="34" class="cell free" />
<rect x="28" y="436" width="34" height="34" class="cell free" />
<rect x="62" y="436" width="34" height="34" class="cell free" />
<rect x="96" y="436" width="34" height="34" class="cell free" />
<rect x="130" y="436" width="34" height="34" class="cell free" />
<rect x="164" y="436" width="34" height="34" class="cell free" />
<rect x="198" y="436" width="34" height="34" class="cell free" />
<rect x="232" y="436" width="34" height="34" class="cell free" />
<rect x="266" y="436" width="34" height="34" class="cell free" />
<rect x="300" y="436" width="34" height="34" class="cell free" />
<rect x="334" y="436" width="34" height="34" class="cell free" />
<rect x="368" y="436" width="34" height="34" class="cell free" />
<rect x="402" y="436" width="34" height="34" class="cell free" />
<rect x="436" y="436" width="34" height="34" class="cell free" />
<rect x="470" y="436" width="34" height="34" class="cell free" />
<rect x="504" y="436" width="34" height="34" class="cell free" />
<rect x="538" y="436" width="34" height="34" class="cell free" />
<rect x="28" y="470" width="34" height="34" class="cell free" />
<rect x="62" y="470" width="34" height="34" class="cell free" />
<rect x="96" y="470" width="34" height="34" class="cell free" />
<rect x="130" y="470" width="34" height="34" class="cell free" />
<rect x="164" y="470" width="34" height="34" class="cell free" />
<rect x="198" y="470" width="34" height="34" class="cell free" />
<rect x="232" y="470" width="34" height="34" class="cell free" />
<rect x="266" y="470" width="34" height="34" class="cell free" />
<rect x="300" y="470" width="34" height="34" class="cell free" />
<rect x="334" y="470" width="34" height="34" class="cell free" />
<rect x="368" y="470" width="34" height="34" class="cell free" />
<rect x="402" y="470" width="34" height="34" class="cell free" />
<rect x="436" y="470" width="34" height="34" class="cell free" />
<rect x="470" y="470" width="34" height="34" class="cell free" />
<rect x="504" y="470" width="34" height="34" class="cell free" />
<rect x="538" y="470" width="34" height="34" class="cell free" />
<rect x="28" y="504" width="34" height="34" class="cell free" />
<rect x="62" y="504" width="34" height="34" class="cell free" />
<rect x="96" y="504" width="34" height="34" class="cell free" />
<rect x="130" y="504" width="34" height="34" class="cell free" />
<rect x="164" y="504" width="34" height="34" class="cell free" />
<rect x="198" y="504" width="34" height="34" class="cell free" />
<rect x="232" y="504" width="34" height="34" class="cell free" />
<rect x="266" y="504" width="34" height="34" class="cell free" />
<rect x="300" y="504" width="34" height="34" class="cell free" />
<rect x="334" y="504" width="34" height="34" class="cell free" />
<rect x="368" y="504" width="34" height="34" class="cell free" />
<rect x="402" y="504" width="34" height="34" class="cell free" />
<rect x="436" y="504" width="34" height="34" class="cell free" />
<rect x="470" y="504" width="34" height="34" class="cell free" />
<rect x="504" y="504" width="34" height="34" class="cell free" />
<rect x="538" y="504" width="34" height="34" class="cell free" />
<rect x="28" y="538" width="34" height="34" class="cell free" />
<rect x="62" y="538" width="34" height="34" class="cell free" />
<rect x="96" y="538" width="34" height="34" class="cell free" />
<rect x="130" y="538" width="34" height="34" class="cell free" />
<rect x="164" y="538" width="34" height="34" class="cell free" />
<rect x="198" y="538" width="34" height="34" class="cell free" />
<rect x="232" y="538" width="34" height="34" class="cell free" />
<rect x="266" y="538" width="34" height="34" class="cell free" />
<rect x="300" y="538" width="34" height="34" class="cell shelf" />
<rect x="334" y="538" width="34" height="34" class="cell free" />
<rect x="368" y="538" width="34" height="34" class="cell free" />
<rect x="402" y="538" width="34" height="34" class="cell shelf" />
<rect x="436" y="538" width="34" height="34" class="cell free" />
<rect x="470" y="538" width="34" height="34" class="cell free" />
<rect x="504" y="538" width="34" height="34" class="cell shelf" />
<rect x="538" y="538" width="34" height="34" class="cell free" />
<rect x="303" y="541" width="28" height="28" rx="3" fill="#64748b" stroke="#0f172a" stroke-width="2"><title>station INBOUND</title></rect>
<text x="317.0" y="555.0" class="label">INBOUND</text>
<rect x="507" y="541" width="28" height="28" rx="3" fill="#64748b" stroke="#0f172a" stroke-width="2"><title>station OUTBOUND</title></rect>
<text x="521.0" y="555.0" class="label">OUTBOUND</text>
<rect x="405" y="541" width="28" height="28" rx="3" fill="#64748b" stroke="#0f172a" stroke-width="2"><title>station PACKING</title></rect>
<text x="419.0" y="555.0" class="label">PACKING</text>
<rect x="134" y="66" width="26" height="26" rx="4" class="pickup" />
<text x="147.0" y="79.0" class="label">S1</text>
<rect x="236" y="440" width="26" height="26" rx="4" class="pickup" />
<text x="249.0" y="453.0" class="label">S10</text>
<rect x="372" y="440" width="26" height="26" rx="4" class="pickup" />
<text x="385.0" y="453.0" class="label">S11</text>
<rect x="474" y="440" width="26" height="26" rx="4" class="pickup" />
<text x="487.0" y="453.0" class="label">S12</text>
<rect x="236" y="66" width="26" height="26" rx="4" class="pickup" />
<text x="249.0" y="79.0" class="label">S2</text>
<rect x="372" y="66" width="26" height="26" rx="4" class="pickup" />
<text x="385.0" y="79.0" class="label">S3</text>
<rect x="474" y="66" width="26" height="26" rx="4" class="pickup" />
<text x="487.0" y="79.0" class="label">S4</text>
<rect x="134" y="236" width="26" height="26" rx="4" class="pickup" />
<text x="147.0" y="249.0" class="label">S5</text>
<rect x="236" y="236" width="26" height="26" rx="4" class="pickup" />
<text x="249.0" y="249.0" class="label">S6</text>
<rect x="372" y="236" width="26" height="26" rx="4" class="pickup" />
<text x="385.0" y="249.0" class="label">S7</text>
<rect x="474" y="236" width="26" height="26" rx="4" class="pickup" />
<text x="487.0" y="249.0" class="label">S8</text>
<rect x="134" y="440" width="26" height="26" rx="4" class="pickup" />
<text x="147.0" y="453.0" class="label">S9</text>
<rect x="304" y="508" width="26" height="26" rx="4" class="dropoff" />
<text x="317.0" y="521.0" class="label">INBOUND</text>
<rect x="508" y="508" width="26" height="26" rx="4" class="dropoff" />
<text x="521.0" y="521.0" class="label">OUTBOUND</text>
<rect x="406" y="508" width="26" height="26" rx="4" class="dropoff" />
<text x="419.0" y="521.0" class="label">PACKING</text>
<circle cx="79.0" cy="521.0" r="11" class="start" />
<text x="79.0" y="521.0" class="label">A0</text>
<circle cx="113.0" cy="521.0" r="11" class="start" />
<text x="113.0" y="521.0" class="label">A1</text>
<circle cx="147.0" cy="521.0" r="11" class="start" />
<text x="147.0" y="521.0" class="label">A2</text>
<circle cx="181.0" cy="521.0" r="11" class="start" />
<text x="181.0" y="521.0" class="label">A3</text>
<polyline points="79.0,521.0 79.0,487.0 79.0,453.0 79.0,453.0 79.0,453.0 113.0,453.0 147.0,453.0 181.0,453.0 215.0,453.0 249.0,453.0 283.0,453.0 317.0,453.0 351.0,453.0 385.0,453.0 385.0,453.0 385.0,453.0 385.0,453.0 419.0,453.0 419.0,453.0 419.0,453.0 419.0,487.0 419.0,521.0 419.0,521.0 419.0,521.0 419.0,521.0 419.0,487.0 419.0,453.0 419.0,453.0 419.0,453.0 453.0,453.0 453.0,453.0 453.0,453.0 453.0,419.0 453.0,385.0 453.0,351.0 453.0,317.0 453.0,283.0 453.0,249.0 453.0,249.0 453.0,249.0 487.0,249.0 487.0,249.0 487.0,249.0 487.0,249.0 453.0,249.0 453.0,249.0 453.0,249.0 453.0,283.0 453.0,317.0 453.0,351.0 453.0,385.0 453.0,419.0 453.0,453.0 453.0,453.0 453.0,453.0 419.0,453.0 419.0,453.0 419.0,453.0 419.0,487.0 419.0,521.0 419.0,521.0 419.0,521.0 419.0,521.0 385.0,521.0 351.0,521.0 317.0,521.0 283.0,521.0 249.0,521.0 215.0,521.0 181.0,521.0 147.0,521.0 113.0,521.0 79.0,521.0" class="route" stroke="#2563eb" />
<polyline points="113.0,521.0 113.0,487.0 113.0,453.0 113.0,453.0 113.0,453.0 147.0,453.0 181.0,453.0 215.0,453.0 249.0,453.0 249.0,453.0 249.0,453.0 249.0,453.0 283.0,453.0 317.0,453.0 351.0,453.0 351.0,453.0 351.0,453.0 351.0,487.0 351.0,487.0 351.0,487.0 385.0,487.0 419.0,487.0 453.0,487.0 487.0,487.0 521.0,487.0 521.0,487.0 521.0,487.0 521.0,521.0 521.0,521.0 521.0,521.0 521.0,521.0 521.0,487.0 521.0,453.0 521.0,453.0 521.0,453.0 487.0,453.0 453.0,453.0 453.0,453.0 453.0,453.0 453.0,419.0 453.0,385.0 453.0,351.0 453.0,317.0 453.0,283.0 453.0,283.0 453.0,249.0 453.0,215.0 453.0,181.0 453.0,147.0 453.0,113.0 453.0,79.0 453.0,79.0 453.0,79.0 419.0,79.0 385.0,79.0 385.0,79.0 385.0,79.0 385.0,79.0 351.0,79.0 351.0,79.0 351.0,79.0 351.0,113.0 351.0,147.0 351.0,181.0 351.0,215.0 351.0,249.0 351.0,283.0 351.0,317.0 351.0,351.0 351.0,385.0 351.0,419.0 351.0,453.0 351.0,453.0 351.0,453.0 385.0,453.0 419.0,453.0 419.0,453.0 419.0,453.0 419.0,487.0 419.0,521.0 419.0,521.0 419.0,521.0 419.0,521.0 385.0,521.0 351.0,521.0 317.0,521.0 283.0,521.0 249.0,521.0 215.0,521.0 181.0,521.0 147.0,521.0 113.0,521.0" class="route" stroke="#dc2626" />
<polyline points="147.0,521.0 147.0,487.0 147.0,453.0 147.0,453.0 147.0,453.0 181.0,453.0 215.0,453.0 249.0,453.0 283.0,453.0 317.0,453.0 351.0,453.0 385.0,453.0 419.0,453.0 453.0,453.0 487.0,453.0 487.0,453.0 487.0,453.0 487.0,453.0 453.0,453.0 453.0,453.0 453.0,453.0 453.0,487.0 453.0,487.0 453.0,487.0 453.0,453.0 453.0,453.0 453.0,453.0 419.0,453.0 385.0,453.0 351.0,453.0 317.0,453.0 317.0,453.0 317.0,453.0 317.0,487.0 317.0,521.0 317.0,521.0 317.0,521.0 317.0,521.0 317.0,487.0 317.0,453.0 317.0,419.0 317.0,385.0 317.0,351.0 317.0,317.0 317.0,283.0 317.0,249.0 317.0,249.0 317.0,249.0 351.0,249.0 385.0,249.0 419.0,249.0 453.0,249.0 453.0,249.0 453.0,249.0 453.0,215.0 453.0,181.0 453.0,147.0 453.0,113.0 453.0,79.0 453.0,79.0 453.0,79.0 487.0,79.0 487.0,79.0 487.0,79.0 487.0,79.0 453.0,79.0 419.0,79.0 385.0,79.0 351.0,79.0 317.0,79.0 317.0,79.0 317.0,79.0 317.0,113.0 317.0,147.0 317.0,181.0 317.0,215.0 317.0,249.0 317.0,283.0 317.0,317.0 317.0,351.0 317.0,385.0 317.0,419.0 317.0,453.0 317.0,487.0 317.0,521.0 317.0,521.0 317.0,521.0 317.0,521.0 283.0,521.0 249.0,521.0 215.0,521.0 181.0,521.0 147.0,521.0" class="route" stroke="#16a34a" />
<polyline points="181.0,521.0 181.0,487.0 181.0,453.0 181.0,453.0 181.0,453.0 215.0,453.0 215.0,453.0 215.0,453.0 215.0,419.0 215.0,385.0 215.0,351.0 215.0,317.0 215.0,283.0 215.0,249.0 215.0,249.0 215.0,249.0 249.0,249.0 249.0,249.0 249.0,249.0 249.0,249.0 283.0,249.0 317.0,249.0 317.0,249.0 317.0,249.0 317.0,283.0 317.0,317.0 317.0,351.0 317.0,385.0 317.0,419.0 317.0,453.0 317.0,487.0 317.0,487.0 317.0,487.0 351.0,487.0 385.0,487.0 419.0,487.0 453.0,487.0 487.0,487.0 521.0,487.0 521.0,487.0 521.0,487.0 521.0,521.0 521.0,521.0 521.0,521.0 521.0,521.0 521.0,487.0 521.0,453.0 521.0,453.0 521.0,453.0 487.0,453.0 453.0,453.0 419.0,453.0 385.0,453.0 351.0,453.0 351.0,453.0 351.0,453.0 351.0,419.0 351.0,385.0 351.0,351.0 351.0,317.0 351.0,283.0 351.0,249.0 351.0,215.0 351.0,181.0 351.0,147.0 351.0,147.0 351.0,147.0 317.0,147.0 317.0,147.0 317.0,147.0 317.0,113.0 317.0,79.0 317.0,79.0 317.0,79.0 283.0,79.0 249.0,79.0 215.0,79.0 181.0,79.0 147.0,79.0 147.0,79.0 147.0,79.0 147.0,79.0 181.0,79.0 215.0,79.0 249.0,79.0 283.0,79.0 317.0,79.0 351.0,79.0 385.0,79.0 419.0,79.0 453.0,79.0 453.0,79.0 453.0,79.0 453.0,113.0 453.0,147.0 453.0,181.0 453.0,215.0 453.0,249.0 453.0,283.0 453.0,317.0 453.0,351.0 453.0,385.0 453.0,419.0 453.0,453.0 453.0,453.0 453.0,453.0 487.0,453.0 521.0,453.0 521.0,453.0 521.0,453.0 521.0,487.0 521.0,521.0 521.0,521.0 521.0,521.0 521.0,521.0 487.0,521.0 453.0,521.0 419.0,521.0 385.0,521.0 351.0,521.0 317.0,521.0 283.0,521.0 249.0,521.0 215.0,521.0 181.0,521.0" class="route" stroke="#9333ea" />
<text x="606" y="46" class="legend-title">Tasks and AGV routes</text>
<line x1="606" y1="68" x2="632" y2="68" stroke="#2563eb" stroke-width="4" />
<text x="642" y="72" class="small">AGV 0: T008, T005 | edges=72</text>
<line x1="606" y1="90" x2="632" y2="90" stroke="#dc2626" stroke-width="4" />
<text x="642" y="94" class="small">AGV 1: T006, T002 | edges=91</text>
<line x1="606" y1="112" x2="632" y2="112" stroke="#16a34a" stroke-width="4" />
<text x="642" y="116" class="small">AGV 2: T003, T007 | edges=92</text>
<line x1="606" y1="134" x2="632" y2="134" stroke="#9333ea" stroke-width="4" />
<text x="642" y="138" class="small">AGV 3: T004, T001 | edges=124</text>
<text x="606" y="174" class="legend-title">Task details</text>
<text x="606" y="198" class="small">T001: S1 -> OUTBOUND</text>
<text x="606" y="217" class="small">T002: S3 -> PACKING</text>
<text x="606" y="236" class="small">T003: S12 -> INBOUND</text>
<text x="606" y="255" class="small">T004: S6 -> OUTBOUND</text>
<text x="606" y="274" class="small">T005: S8 -> PACKING</text>
<text x="606" y="293" class="small">T006: S10 -> OUTBOUND</text>
<text x="606" y="312" class="small">T007: S4 -> INBOUND</text>
<text x="606" y="331" class="small">T008: S11 -> PACKING</text>
</svg>